<?xml version="1.0" encoding="UTF-8"?>
<svg id="Capa_2" data-name="Capa 2" xmlns="http://www.w3.org/2000/svg" viewBox="0 0 389.91 428.95">
  <defs>
    <style>
      .cls-1 {
        fill: #fae5e2;
      }
    </style>
  </defs>
  <g id="Capa_1-2" data-name="Capa 1">
    <path class="cls-1" d="M35.03,396.7c15.95,15.36,33.81,25.81,52.8,32.26h112.73c17.35-4.43,34.53-8.7,52.81-6.73,7.07.77,12.85,3,17.21,6.73h47.55c-1.11-3.41-2.44-6.81-3.98-10.21-11.05-24.33-33.1-36.53-59.77-39.09-19.15-1.84-37.78,1.79-56.2,6.63-45.56,11.97-85.41,15.08-125.94-12.88-32.65-22.53-50.86-91.29,4.22-94.28,15.44-.84,31.1,1.03,46.58,2.5,20.68,1.97,41.21,2.8,61.41-3.22,44.68-13.32,64.69-53.74,47.44-96.85-3.98-9.94-9.17-19.64-15.28-28.42-10.4-14.95-22.56-28.69-32.88-43.69-9.46-13.77-18.24-28.15-25.84-43.01-5.3-10.36-6.39-22.13-2.53-33.68,4.67-14,16.38-21.13,30.42-16.82,19.55,6.01,42.38,24.87,53.83,41.76,9.06,13.36,15.93,29.68,22.48,44.44,7.91,17.8,15.05,35.92,22.95,53.72.72,1.63,1.48,3.23,2.24,4.83.24.51.49,1.02.74,1.53.57,1.16,1.15,2.3,1.73,3.44.25.49.5.98.76,1.47.67,1.27,1.35,2.52,2.05,3.77v-.04c12.87,22.94,30.51,41.78,54.42,54.8,13.98,7.61,28.31,12.43,42.93,13.76v-42.29c-5.18-.87-10.31-2.46-15.37-4.6-18.27-7.73-32.53-20.52-42.42-37.55-6.48-11.16-11.92-23.01-16.78-34.98-14.49-35.7-29.4-72.7-55.18-101.97-5.47-6.21-11.74-12.35-18.61-18h-116c-8.98,12.55-13.74,28.15-13.96,44.01-.37,27.62,10.75,51.48,26.18,73.37,14.5,20.58,30.5,40.11,45.12,60.61,5.07,7.11,8.96,15.43,11.67,23.76,5.06,15.53-.56,28.02-15.81,33.78-9,3.4-19.06,5.37-28.67,5.44-13.85.11-27.72-1.97-41.56-3.35-18.75-1.87-37.39-2.09-55.73,3.04-30.58,8.55-49.59,29.21-52.25,59.82-3.17,36.38,8.02,70.71,34.51,96.21Z"/>
  </g>
</svg>