<?xml version="1.0" encoding="UTF-8"?>
<svg id="Capa_2" data-name="Capa 2" xmlns="http://www.w3.org/2000/svg" viewBox="0 0 252.99 424.31">
  <defs>
    <style>
      .cls-1 {
        fill: #fae5e2;
      }
    </style>
  </defs>
  <g id="Capa_1-2" data-name="Capa 1">
    <g>
      <path class="cls-1" d="M0,123.52c9.61-11.88,21.83-20.81,35.97-27.02,16.35-7.18,33.38-12.83,50.23-18.85,16.49-5.9,32.72-12.22,46.53-23.39,17.95-14.51,26.62-33.62,25.23-54.27h-39.21c1.5,8.77-1.3,16.46-9.17,22.44-7.03,5.34-14.96,9.95-23.15,13.24-15.56,6.24-31.65,11.13-47.42,16.87-14,5.09-27.08,11.46-39,19.4v51.58Z"/>
      <path class="cls-1" d="M217.27,196.7c-43.45-38.76-99.69-40.69-153.1-24.85-16.78,4.97-33.33,10.07-51.24,8.82-4.98-.35-9.3-1.5-12.93-3.46v41.38c4.34.92,8.85,1.51,13.5,1.78,17.91,1.03,35.13-3.01,52.13-8.17,42.03-12.77,79.05-17.08,117.79,7.53,31.22,19.83,50.63,83.25-.59,87.99-14.36,1.33-29.01.15-43.49-.68-19.34-1.1-38.49-1.14-57.1,5.18-41.15,13.99-58.36,52.37-40.76,91.92,3.1,6.97,6.86,13.77,11.14,20.15h49.53c-5.03-6.14-10.03-12.31-14.88-18.59-4.97-6.44-8.89-14.06-11.72-21.72-5.27-14.29-.47-26.13,13.54-32.04,8.26-3.49,17.57-5.68,26.52-6.08,12.9-.59,25.9.85,38.84,1.64,17.54,1.08,34.91.62,51.81-4.81,28.19-9.05,45.16-28.98,46.56-57.59,1.66-34.01-9.98-65.59-35.56-88.42Z"/>
    </g>
  </g>
</svg>