<?xml version="1.0" encoding="UTF-8"?>
<svg id="Capa_2" data-name="Capa 2" xmlns="http://www.w3.org/2000/svg" viewBox="0 0 337.06 391.28">
  <defs>
    <style>
      .cls-1 {
        fill: #fae5e2;
      }
    </style>
  </defs>
  <g id="Capa_1-2" data-name="Capa 1">
    <path class="cls-1" d="M269.36,302.32c-16.61,8.15-34.32,10.39-52.36,6.96-11.82-2.25-23.5-5.65-34.9-9.54-34-11.59-69.18-23.68-105.55-23.38-25.89.21-56.74,7.26-76.56,25.25v89.67h156.57c-3.79-.75-7.6-1.33-11.4-1.74-16.89-1.8-33.99-1.62-50.86-3.51-15.48-1.74-30.97-4.34-46.09-8.05-10.53-2.59-19.49-9.01-25.28-18.78-7.01-11.84-4.88-24.45,6.72-31.7,16.17-10.11,43.4-14.67,62.3-12.43,14.94,1.78,30.64,6.9,45.04,11.29,17.37,5.29,34.5,11.33,51.87,16.63,1.59.48,3.18.94,4.77,1.37.51.14,1.02.28,1.53.41,1.16.31,2.32.6,3.48.88.5.12,1,.25,1.5.36,1.3.3,2.61.59,3.91.85l-.03-.02c24.03,4.94,48.08,4.01,71.85-4.89,27.3-10.21,47.84-27.94,57.6-56.13,11.68-33.73-6.03-66.86-40.49-75.95-9.71-2.56-19.75-3.87-29.65-5.69-15.26-2.81-24.82-11.99-28.63-26.75-1.6-6.18-2.29-12.78-2.18-19.17.29-17.2,1.59-34.39,1.83-51.6.38-27.08-5.92-52.38-21.99-74.67-26.2-36.34-67.77-42.3-103.23-14.91-21.33,16.47-32.39,38.86-37.33,64.77-2.76,14.49-4.12,29.4-8.38,43.43-6.27,20.64-22.13,41.29-42.31,49.86-7.42,3.15-14.72,3.84-21.12,1.87v43.03c9.43.56,19.02-1.01,27.93-5,43.32-19.39,70.65-51.46,77.95-99.27,1.79-11.71,3.72-23.43,6.38-34.97,3.34-14.45,10.99-26.36,23.48-34.77,16.77-11.29,31.7-8.78,43.9,7.39,9.9,13.11,14.9,28.1,15.32,44.36.31,12.05-.75,24.13-.99,36.2-.25,12.5-1.34,25.11-.14,37.48,3.83,39.66,27.4,64.7,66.34,71.83,7.04,1.29,14.18,2.17,21.13,3.83,14.38,3.44,19.81,13.42,14.81,27.33-4.74,13.16-14.54,21.88-26.75,27.87Z"/>
  </g>
</svg>