<?xml version="1.0" encoding="UTF-8"?>
<svg id="Capa_2" data-name="Capa 2" xmlns="http://www.w3.org/2000/svg" viewBox="0 0 421.47 421.47">
  <defs>
    <style>
      .cls-1 {
        fill: #01492b;
        fill-rule: evenodd;
      }
    </style>
  </defs>
  <g id="Capa_1-2" data-name="Capa 1">
    <path class="cls-1" d="M210.72,0c116.38,0,210.74,94.32,210.74,210.74s-94.36,210.72-210.74,210.72S0,327.12,0,210.74,94.34,0,210.72,0M210.72,274.68c.06-.04.04-.02.06-.1.27-.7.6-1.37.91-2.05l.41-.87c.02-.06.06-.12.08-.21l.31-.62c.04-.08.06-.15.1-.23.02-.06.06-.15.08-.23l.23-.41c.04-.15.12-.29.21-.44l3.23-6.18c.27-.56.62-1.06.91-1.62.04-.06.06-.1.1-.17.5-.85,1-1.72,1.53-2.55l.54-.87s.04-.08.08-.1l.35-.6s.08-.1.1-.17l.15-.21c.79-1.29,1.66-2.49,2.51-3.75l.52-.75c.04-.06.08-.12.12-.19l3.46-4.71c.06-.06.08-.12.12-.19.06-.06.1-.1.15-.17l.56-.7c.37-.48.7-.97,1.08-1.43l.7-.87c.21-.25.39-.48.56-.73l.58-.68c.27-.33.54-.68.83-1.02l1.29-1.55s.04-.04.08-.08l.85-1.02s.04-.04.08-.08c.37-.46.85-1.1,1.24-1.6.04-.04.1-.1.15-.17l2.59-3.23c.27-.27.52-.62.79-.93l.5-.6s.04-.06.08-.1c.08-.1.19-.19.27-.31.02-.04.04-.04.06-.08l.64-.77c.21-.23.39-.46.6-.68.23-.31.7-.85,1-1.18l.46-.52c.15-.15.29-.35.44-.5.08-.06.08-.1.15-.17.23-.23.39-.46.6-.66.02-.04.04-.04.08-.08l.29-.35c.23-.23.58-.66.81-.89l.29-.33c.04-.06.1-.1.17-.17l1.04-1.16c.06-.06.08-.08.15-.15l1.06-1.16c.35-.39.7-.77,1.06-1.14.06-.06.12-.1.17-.17.06-.04.08-.08.17-.15l.97-1.04c.15-.19.31-.33.46-.5.17-.19.37-.35.54-.56l.17-.17c.17-.17.39-.35.54-.54.02-.04.02-.06.06-.1.25-.23.79-.73.95-.95.08-.12.21-.21.29-.31l2.53-2.49c.06-.06.1-.12.17-.17l.81-.79c.06-.06.1-.08.17-.12.02-.04.04-.04.08-.06l.89-.85c.21-.23.6-.56.81-.77l1.55-1.72s.04-.06.06-.08l1.18-1.37s.04-.04.08-.08l1.08-1.26c.39-.46.95-1.12,1.31-1.55.35-.48.75-.89,1.12-1.37l.06-.08c.31-.35.6-.77.91-1.12.35-.46.68-.89,1.04-1.33l.62-.81c.75-1.02,1.53-2.03,2.24-3.09t.06-.08l.46-.68c.27-.31.93-1.33,1.16-1.68.04-.08.06-.1.1-.19.04-.06.08-.1.12-.19l.31-.5.06-.08.31-.48s.04-.06.06-.12l1.39-2.34c.04-.06.08-.12.12-.21l.21-.39c.33-.54.6-1.1.89-1.64l.62-1.26c.04-.08.06-.15.1-.23l1.35-3.03s.02-.08.04-.12l.12-.33c.29-.7.52-1.39.75-2.09l.12-.35c0-.06.02-.08.04-.12.02-.04.02-.06.04-.1l.02-.08.29-.97v-.02l.35-1.29c.02-.17.06-.33.1-.48.04-.17.08-.33.12-.54l.52-2.76.21-2.14c.02-.08.04-.19.06-.29.02-.29,0-.58.06-.89.02-.25.02-1.66.02-1.87,0-.41-.02-.83-.02-1.22,0-.12-.02-.17-.02-.29v-.29c0-.12-.02-.17-.02-.31l-.15-1.45c0-.06-.02-.19-.02-.29l-.06-.52c0-.08,0-.12-.02-.15l-.12-.83c-.02-.23-.31-1.8-.37-2.01-.08-.33-.15-.68-.23-1.02-.04-.17-.08-.33-.12-.5l-.25-.93-.02-.06-.29-1v-.02l-.23-.66c-.02-.08-.04-.19-.06-.25l-.08-.25c-.06-.25-.41-1.14-.54-1.49l-.1-.23c-.25-.66-.56-1.47-.87-2.09l-1.43-2.99c-.19-.39-.56-1.1-.81-1.53-.02-.04-.04-.06-.06-.1-.89-1.6-2.01-3.38-3.01-4.83l-1.58-2.22c-.68-1.02-2.03-2.72-2.86-3.71-.33-.44-.7-.87-1.06-1.31l-.95-1.12c-.15-.12-.29-.31-.41-.48-.27-.27-.5-.56-.77-.83l-.58-.66c-.17-.15-.29-.33-.46-.5l-1.51-1.62c-.08-.08-.1-.12-.15-.19-.1-.1-.23-.19-.33-.31l-.31-.31c-.1-.12-.21-.23-.29-.33l-3.3-3.3c-.19-.15-.33-.29-.5-.46l-.81-.75c-.06-.06-.1-.1-.17-.17-.31-.31-.66-.58-.97-.91l-1.64-1.47c-.23-.23-.44-.39-.66-.62l-.66-.58s-.04-.06-.08-.08l-1.43-1.24s-.06-.04-.08-.08c-.04-.04-.04-.02-.08-.06l-.33-.31c-.06-.06-.1-.06-.17-.12l-2.3-1.95s-.04-.04-.08-.08l-.44-.35s-.04-.04-.08-.08l-4-3.36c-.25-.23-.5-.46-.77-.66-.06-.02-.04-.02-.08-.06t-.08-.08l-.44-.35s-.04-.06-.08-.08l-2.03-1.74s-.04-.04-.08-.06c-.04-.04-.04-.02-.08-.06l-2.53-2.2c-.06-.04-.04-.04-.08-.06l-.41-.37s-.04-.02-.08-.06l-.44-.37c-.27-.27-.56-.48-.83-.73l-1.18-1.04c-.25-.21-1.02-.91-1.33-1.16l-3.09-2.72c-.25-.23-.73-.68-.93-.83l-2.07-1.84s-.04-.04-.08-.06c-.17-.17-.33-.33-.5-.46-.1-.08-.23-.21-.33-.29l-.68-.62c-.23-.19-.62-.5-.83-.7-.17-.17-.35-.27-.52-.46l-.06-.06s-.06-.04-.08-.08c-.04-.02-.04-.04-.08-.06-.29-.23-.54-.48-.83-.73l-.17-.17c-.29-.27-.64-.52-.93-.79l-.17-.17c-.35-.33-1.1-.91-1.43-1.22l-.17-.17c-.06-.04-.06-.02-.1-.06l-2.03-1.74c-.06-.04-.1-.08-.17-.15l-.33-.27c-.37-.33-.83-.68-1.22-1.02l-.7-.52c-.12-.1-.25-.19-.35-.29-.44-.29-.85-.62-1.29-.91l-.79-.48s-.06-.04-.1-.06c-.06-.04-.04-.04-.12-.06-.04.06-.12.08-.19.12-.06.04-.12.08-.19.1l-2.92,2.09c-.12.1-.23.19-.35.29-.1.1-.23.19-.35.29l-1.53,1.26c-.06.06-.1.1-.19.15l-.23.23s-.04.04-.08.06l-1.95,1.68c-.25.23-.52.41-.75.64-.17.17-.33.31-.52.46l-1.41,1.24s-.06.04-.1.06c-.25.25-.6.52-.81.75-.19.19-.68.58-.91.81l-.93.81c-.06.04-.12.1-.17.15-.06.04-.1.1-.17.15l-1.24,1.12c-.27.21-.52.46-.77.66-.23.19-.44.41-.68.6l-1.14,1.02c-.17.17-.35.29-.5.44l-.6.52s-.04.04-.08.08l-.83.73s-.04.04-.08.08l-.66.58c-.17.17-.35.29-.5.44-.17.19-.35.27-.52.46-.19.19-.85.73-1.1.95-.02.02-.04.04-.08.06l-.5.46s-.04.04-.08.06c-.06.06-.1.08-.17.12-.17.17-.33.29-.5.46l-.17.17q-.06.02-.08.06l-2.2,1.89s-.04.02-.08.06c-.04.02-.04.06-.08.08l-.93.81s-.04.04-.08.06t-.08.08l-1.76,1.49c-.04.06-.04.04-.1.08l-1.53,1.33c-.39.33-.79.64-1.18,1-.33.29-.7.56-1.04.87l-.77.64s-.04.02-.08.06l-1.37,1.14s-.04.04-.08.06l-1.45,1.24s-.04.04-.08.06l-1.26,1.12c-.06.04-.1.06-.17.12-.29.23-.83.75-1.02.87-.1.08-.21.21-.31.31l-3.63,3.3c-.08.06-.1.08-.17.15s-.1.1-.17.17l-1.45,1.35c-.06.04-.08.1-.15.17-.12.1-.21.21-.33.33-.1.12-.21.19-.33.29l-1.87,1.89c-.54.54-1.04,1.08-1.55,1.58-.06.08-.08.1-.15.17l-1.68,1.78c-.15.21-.48.52-.6.66-.04.08-.08.1-.15.17l-.15.19s-.04.04-.06.08c-.15.17-.31.31-.46.48-.02.04-.02.06-.06.1-.04.02-.06.04-.08.06q-.04.06-.08.1l-.73.83s-.02.04-.06.1l-3.32,4.06-1.41,1.89s-.04.06-.06.1l-.79,1.1s-.02.06-.06.1c-.02.02-.04.02-.06.06l-.52.77c-.79,1.18-1.55,2.43-2.28,3.65-.06.08-.1.15-.15.21l-.46.79c-.62,1.1-1.14,2.22-1.72,3.32-.19.37-.31.75-.48,1.08-.29.58-.89,2.07-1.16,2.76l-.37,1.06c-.02.08-.04.17-.08.23l-.41,1.33s-.02.04-.02.04l-.25.87v.02l-.02.02-.17.62c-.12.54-.27,1.08-.39,1.64l-.02.08c0,.08,0,.02,0,.06-.06.17-.08.37-.12.52-.04.27-.1.52-.15.79,0,.17-.06.37-.08.52l-.12.83c0,.06,0,.08-.02.15,0,.06-.02.1-.02.15-.06.46-.12.95-.15,1.41,0,.08-.02.21-.02.29l-.12,1.78v2.22l.08,1.18c.02.17,0,.37.02.58.04.41.12,1.29.19,1.68l.06.44q0,.06.02.12c.02.06.04.19.04.27.02.25.08.56.12.81.04.19.08.39.1.54.02.08.04.19.04.27.02.1.04.17.06.25.02.1.04.21.06.27l.29,1.29c.04.17.08.35.12.5l.19.68.02.06.29.97c.12.41.29.85.41,1.26.15.46.39,1.06.56,1.51.02.08.06.15.08.23.19.52.41,1.04.64,1.53.17.37.31.75.5,1.1l.39.85.04.1c.17.44.75,1.47,1,1.99l1.02,1.8c.27.48.54.93.83,1.41l1.33,2.09c.31.52.91,1.35,1.26,1.89.29.46.62.85.93,1.31.02.06.08.12.12.19l1.87,2.51c.04.08.08.12.15.17.54.75,1.08,1.43,1.64,2.14.1.12.21.23.29.35l.48.6s.06.06.08.08c.27.31.7.89,1,1.2l1.87,2.22c.04.06.08.12.15.19l2.51,2.84c.21.21.39.46.6.66l.64.6c.06.06.1.08.17.15l.95.91c.08.06.12.08.19.15.04.06.08.1.15.17.06.06.1.08.17.15.12.1.21.21.31.31.12.12.23.19.33.31.39.41,2.65,2.57,2.84,2.82.23.31.62.66.93.95l3.07,3.21c.31.33.6.66.91.97l.44.5c.15.15.33.31.46.48.06.06.1.1.17.17.04.04.04.06.06.08l.39.39c.17.19.33.41.52.6l.73.83c.19.19.37.35.54.58l1.18,1.31c.25.27.48.58.73.83l.52.6s.04.04.06.1l.08.08.81.91s.02.04.06.08l.37.44c.19.25.37.44.58.68.04.06.08.1.12.17.04.04.04.06.08.08.02.04.04.06.08.1l.35.39c.25.33.52.64.77.95l.23.27s.04.04.08.08.06.12.12.17c.04.04.08.1.15.17l1.41,1.74c.19.25.37.48.56.73l1.51,1.89c.15.19.27.39.44.56l1.06,1.26c.31.37.64.73.93,1.12l3.09,3.81s.08.08.15.17c.04.04.08.12.15.19.02.04.08.12.12.17l.29.35c.39.48.87,1.12,1.22,1.62l3.19,4.35c.08.12.17.23.27.35l.62.93c.06.06.1.12.15.19l.37.54c.19.27.33.52.52.77.04.06.08.12.15.21l1.89,2.94s.06.06.08.1l2.86,4.81c.27.48.73,1.24.95,1.72l.77,1.43c.06.15.15.29.21.41l.64,1.24c.29.58.56,1.14.83,1.68l.25.52c.08.19.19.35.27.54.1.29.37.77.5,1.06l.21.46c.15.31.31.62.46.95l.12.33c.23.44.39.87.6,1.33M62.85,179.23c.02.12.12.29.15.39l1.8,4.79c.1.31.37.97.46,1.26.02.02.02.04.04.08l.52,1.47s.02.06.04.1c.02.08.04.12.06.21l.21.54s.02.06.04.1q0,.06.02.1l.48,1.37c.12.35.25.73.39,1.06l.7,2.07v.02l.52,1.53c.02.06.06.1.08.19l.06.23c.08.17.52,1.49.56,1.7l.1.25v.02c.1.21.25.79.35,1.04.08.27.19.56.27.85l.29.87c.08.27.19.54.29.83.1.29.17.58.27.87.04.06.06.12.08.19.02.08.04.17.06.23l1,3.03c.1.31.29.89.37,1.18l.31.95c.15.37.27.85.39,1.2.02.04.02.06.04.1l.06.21c.17.37.29,1.02.46,1.41l.21.64s.02.08.02.1l1.08,3.28c.02.08,0,.02.02.08,0,.02.02.06.04.1.02.06.04.15.06.21.02.06.02.08.04.1l.27.87c.08.29.39,1.16.46,1.41l1.02,3.11c.02.06.02.08.04.12l.48,1.49s.02.08.04.1c.02.02.04.08.04.1,0,.06,0,.08.02.12.02.04.02.08.04.1l.5,1.51c.06.19.12.35.17.54l1.62,4.81c.02.06,0,.06.04.12.17.52.31,1.08.52,1.6.12.35.25.81.37,1.1v.02l.02.02v.04l3.48,10.07c.25.62.46,1.26.7,1.91.02.08.04.12.06.19l1.08,2.94c.02.08.04.12.08.21l.5,1.33c0,.06.02.08.04.12,0,.02.02.08.02.1l.27.73c.06.15.12.29.17.41l.33.85c.44,1.22.93,2.47,1.43,3.69l.31.83c.39.93.83,2.14,1.22,3.05l.25.6c.02.06.06.15.1.21l.95,2.32s.02.04.04.1l.48,1.1s.02.06.04.1l1.64,3.77c.06.15.12.27.19.41t.02.1l.15.29c.27.58.52,1.18.81,1.76l1.22,2.61s.02.06.04.1l.12.29s.04.08.06.1l3.71,7.4,1.1,2.07c.04.06.08.1.1.19l2.26,4c.04.06.08.12.1.19l2.49,4.1c.08.12.15.23.23.35.02.06.06.12.1.19.02.04.06.08.1.17l2.96,4.46s.02.04.06.08l.06.08.54.77s.02.04.04.06l.48.66c.04.06.08.1.1.19l.19.25s.04.04.06.08l.37.5s.04.04.06.08l3.67,4.73c.04.06.08.1.12.17l1.1,1.33s.04.06.08.08l.39.46c.04.06.08.08.12.15l2.16,2.43c.19.21.37.39.56.58l.56.6s.1.08.15.15c.06.06.08.1.12.15l1.43,1.43c.19.21.39.37.58.56l.29.29c.1.1.19.19.29.27.06.06.08.08.15.12l.73.73c.1.08.21.15.31.25.06.06.08.08.15.15.06.04.1.1.15.15l1.06.93c.06.06.08.08.15.15l.93.79s.02.02.06.06l4.06,3.21s.06.04.1.04l.97.73s.06.04.08.06l1.2.83c.31.23,1.45,1,1.89,1.24l1.06.66c.08.02.1.06.19.1l.89.52s.06.04.08.06l.56.31c.7.37,1.41.81,2.11,1.16.06.02.12.06.19.1.29.17,1.84.95,2.09,1.06l.58.27c.41.19.85.39,1.29.56l1.18.52c.83.35,1.64.68,2.47.97.04.02.06.02.1.04l3.17,1.12c.08.02.15.02.23.06.27.06.5.17.75.23l2.59.73c.21.06.44.12.66.17.15.04.29.06.46.1l.35.08s.04.02.1.02l1.64.37.06.02c.08.02.04,0,.06.02l1.91.35c.56.12,1.35.21,1.82.33.25.04.48.06.75.1l1.49.23c.39,0,.87.12,1.29.15.12.02.15,0,.27.02l4.48.39c.12-.02.17,0,.27.02l1.37.04h.54c.12,0,.17.02.27.02h2.59c.12,0,.15-.02.27-.02l1.93-.04c.1,0,.15-.02.25-.04l1.08-.06c.08-.02.19,0,.29-.02.04,0,.17-.02.23-.04.1,0,.21.02.29,0,.35-.06.68-.06,1.02-.1.08,0,.19-.02.27-.04l2.16-.25c.29-.04.7-.12.97-.17l2.26-.46c.56-.1,1.12-.25,1.64-.37l.6-.17c.33-.1.6-.21.89-.25.29-.1,1.31-.41,1.58-.52.06-.02.15-.06.21-.08l.83-.31c.06-.02.15-.06.21-.08l1.78-.79c.33-.12.64-.31.95-.46l1.97-1.22c.37-.25,1.08-.79,1.41-1.12.08-.06.08-.08.17-.15.19-.15.39-.39.58-.58l.79-.93s.08-.08.12-.12c.02-.06.06-.1.1-.17.27-.33.48-.68.7-1.04.06-.12.15-.23.21-.37.23-.35.41-.75.6-1.12.12-.25.23-.52.33-.79l.39-1.04s.04-.08.04-.1c.02-.04,0,0,.02-.06l.46-1.6c.04-.17.06-.37.1-.52l.1-.44c.04-.21.08-.5.12-.73l.06-.52c.02-.1.12-.75.15-1.02v-.27c.02-.06.02-.17.04-.27.04-.46.1-1.62.1-2.14l-.02-1.7c0-.12-.02-.15-.02-.27l-.02-.54c0-.1-.02-.15-.02-.27,0-.21,0-.37-.02-.52-.02-.1,0-.21,0-.29-.02-.08-.04-.17-.04-.25-.02-.19-.06-.37-.06-.54,0-.19-.02-.35-.02-.54-.02-.06-.04-.15-.04-.23-.02-.1-.02-.17-.04-.27,0-.08-.02-.17-.04-.27,0-.19-.15-1.18-.19-1.33v-.15c-.02-.19-.08-.33-.08-.5l-.23-1.22s-.02-.08-.02-.1c-.06-.29-.08-.56-.15-.85l-.27-1.16c-.02-.06-.02-.15-.04-.23-.02-.02-.04-.08-.04-.12l-.66-2.63c-.04-.15-.06-.29-.1-.44q-.02-.06-.04-.1l-.02-.08v-.02l-.06-.25c-.17-.48-.29-.95-.41-1.43l-.95-2.92c-.02-.06,0-.02-.02-.08l-.56-1.6s-.04-.06-.04-.1l-1.55-4c-.06-.17-.1-.27-.17-.41l-.52-1.2c-.27-.68-.56-1.33-.87-1.99l-.52-1.18c-.04-.08-.06-.12-.1-.21l-2.16-4.37c-.19-.39-1.06-2.14-1.26-2.47l-.5-.95s-.04-.02-.06-.06c-.02-.02-.02-.06-.04-.08-.23-.46-.79-1.41-1.04-1.85l-3.4-5.74s-.04-.04-.06-.08l-.48-.81s-.06-.08-.1-.15l-.12-.19s-.04-.06-.06-.08l-3.57-5.43c-.04-.06-.06-.1-.12-.17l-2.24-3.19c-.08-.12-.15-.21-.23-.31l-2.18-2.99c-.35-.46-.66-.85-1-1.31l-.87-1.12c-.54-.68-1.55-2.01-2.14-2.72l-1.66-2.07c-.46-.54-1.16-1.41-1.64-1.91l-.31-.41s-.1-.1-.12-.17l-1.45-1.68c-.06-.06-.1-.1-.12-.17-.06-.04-.1-.08-.15-.15-.15-.21-.35-.39-.52-.6l-.75-.83c-.29-.35-.73-.81-1-1.16l-.29-.29s-.06-.1-.12-.15c-.19-.19-.35-.41-.52-.58-.1-.12-.19-.21-.29-.31-.04-.06-.06-.1-.12-.17l-.29-.29c-.19-.19-.6-.7-.83-.89l-1.35-1.49c-.06-.04-.1-.08-.15-.15l-1.14-1.16c-.04-.06-.04-.1-.12-.17l-.83-.87c-.08-.06-.08-.08-.15-.15l-1.41-1.43c-.1-.1-.17-.21-.27-.31l-5.97-5.72c-.25-.25-.7-.6-.91-.81l-1.14-1.04c-.35-.31-1.18-1.06-1.43-1.24l-2.49-2.09c-.1-.08-.21-.17-.31-.25-.1-.1-.19-.19-.33-.27-.06-.06-.08-.08-.15-.1-.58-.48-1.14-.97-1.74-1.43-.6-.41-1.16-.93-1.76-1.37l-2.11-1.62c-.66-.5-1.31-.99-1.97-1.47l-.33-.21c-.12-.1-.21-.17-.33-.25-.06-.04-.1-.08-.17-.15l-.33-.23c-.5-.35-1.02-.7-1.49-1.06-.46-.33-.91-.64-1.35-.95-1.18-.81-2.38-1.62-3.57-2.43t-.08-.04l-1.14-.75c-.06-.04-.1-.08-.17-.1l-1.55-1.02c-.06-.04-.1-.06-.17-.1l-2.2-1.39s-.06-.02-.08-.04c-.12-.08-.23-.15-.35-.23l-1.53-.91c-.5-.31-1.18-.75-1.68-1.02l-1.8-1.08c-.06-.04-.12-.06-.19-.1-.02-.02-.06-.02-.08-.06-.04-.02-.06-.02-.1-.04l-4.66-2.61s-.04-.04-.1-.04l-3.52-1.89s-.1-.06-.19-.1l-7.23-3.61-5.89-2.67c-.15-.06-.27-.12-.41-.17l-1.7-.73s-.06-.04-.12-.06l-2.22-.91c-.29-.12-.54-.21-.81-.31-.15-.06-.27-.1-.41-.17l-.81-.33c-.08-.02-.15-.04-.21-.08-.06-.02-.17-.04-.21-.06-.29-.12-.54-.21-.85-.31l-.29-.12s-.08-.04-.12-.04l-.5-.19s-.06-.04-.1-.06c-.56-.21-1.12-.41-1.68-.58l-.21-.08c-.23-.06-.44-.17-.64-.25l-1.47-.48c-.33-.15-.89-.33-1.29-.46l-.44-.15c-.08-.02-.15-.04-.21-.04l-1.51-.5s-.04-.02-.06-.02l-.15-.04h-.02s-.06-.02-.1-.04l-.15-.04s0-.02-.02-.02l-.5-.15h-.04v-.02c-.25-.04-.48-.12-.73-.19l-2.9-.81s-.04-.02-.04-.02l-2.94-.73c-.06,0-.17-.02-.23-.04l-2.96-.62h-.15s-.06-.02-.1-.04c-.6-.1-1.24-.17-1.87-.27-.19-.02-.33-.02-.52-.06l-.5-.06c-.17-.02-.35-.02-.52-.06-.17,0-.35-.04-.52-.06-.17,0-.39,0-.54-.02-.06-.02-.21,0-.29-.02-.06,0-.19-.02-.25-.02l-1.12-.02h-.58c-.19,0-.33.02-.54.02M358.59,179.23c-.37,0-.7-.02-1.1-.02-.21,0-.35.02-.56.02-.19,0-.39-.02-.56,0-.44.02-.89.06-1.35.1l-2.65.31s-.06.02-.1.02c-.08.02-.17.02-.25.04-.08.02-.17.02-.27.04l-.7.12c-.1.04-.19.04-.25.06-.1,0-.17.02-.25.04l-1.18.23c-.06.02-.17.02-.25.04l-.81.19s-.08.02-.1.04l-2.09.48c-.12.02-.31.06-.46.1-.08.04-.15.04-.21.06-.17.06-.33.08-.48.12-.06.02-.02.02-.1.04l-.56.12c-.31.1-.6.17-.91.25-.17.06-.29.1-.44.15l-.66.19s-.06.02-.12.02l-.08.02c-.48.15-.93.29-1.41.44l-1.02.31c-.21.08-.44.15-.64.21l-.23.08c-.31.06-1.06.35-1.51.48-.44.15-1.02.37-1.47.52l-.62.21c-.29.12-.58.21-.85.31-.56.23-1.14.41-1.68.62l-.83.31-2.49.97c-1.37.54-2.76,1.1-4.1,1.7l-2.11.89c-.58.27-1.45.62-1.97.89l-2.72,1.24-.1.06-.5.23c-.39.17-1.16.58-1.53.73-.15.06-.25.12-.39.21l-3.79,1.91c-.15.04-.25.1-.37.17-.12.08-.25.12-.39.21t-.08.04l-.29.17c-.81.39-1.62.87-2.43,1.26l-2.88,1.6s-.04.02-.08.02l-.27.17s-.06.04-.1.04t-.08.06l-.46.25c-.12.08-.25.15-.35.23l-.37.17s-.06.04-.1.06c-.04.02-.04.04-.08.04-.02.04-.04.04-.08.06-.04.02-.06.04-.1.06l-1.45.83c-.06.04-.12.08-.17.12-.75.39-1.66.95-2.34,1.35l-5.64,3.5c-.06.04-.1.08-.17.12-.08.04-.12.06-.19.1l-1.55,1.02s-.1.06-.17.12c-.46.31-.93.6-1.39.91l-4.04,2.78c-.12.08-.23.15-.35.23l-3.32,2.43c-.06.02-.1.06-.17.1l-3.88,2.96c-.06.06-.08.08-.17.12l-3.15,2.55c-.35.31-.75.6-1.1.91-.35.31-.73.6-1.08.91l-1.99,1.72c-.19.21-.41.35-.6.54l-.83.75s-.04.02-.06.06l-1.43,1.33s-.02.02-.08.06l-.21.19c-.21.19-.46.44-.64.62-.06.08-.1.08-.17.15-.1.08-.19.19-.29.27-.06.06-.08.08-.15.15l-1.31,1.29c-.1.06-.21.17-.29.27l-1.87,1.87c-.06.06-.08.1-.15.15-.29.33-.62.62-.91.93l-.5.5c-.06.08-.06.1-.12.17-.06.04-.1.1-.15.15-.1.1-.19.19-.29.29l-.83.87c-.06.04-.08.08-.15.15l-1.58,1.7s-.04.04-.08.06l-.27.29c-.04.06-.08.08-.12.17l-1.58,1.72-.06.06c-.08.08-.08.1-.15.17l-1.55,1.74c-.23.27-.5.54-.75.83-.06.08-.17.17-.25.27l-1,1.18s-.04.02-.08.06t-.06.08s-.02.04-.04.08c-.23.25-.46.5-.68.77l-.77.91c-.06.08-.08.1-.15.17-.02.02-.04.02-.06.06t-.06.08l-.12.15c-.04.06-.1.12-.12.17l-1.04,1.26c-.08.08-.17.19-.27.29l-3.05,3.84c-.17.21-.33.41-.5.64-.04.04-.08.08-.12.15-.04.06-.08.1-.12.17l-2.69,3.57c-.19.25-.33.46-.5.68l-3.77,5.35-4.04,6.22c-.04.06-.06.1-.12.17l-.1.19c-.06.12-.15.23-.21.33l-.44.75c-.29.46-.58.95-.87,1.41l-.79,1.35c-.02.06-.04.06-.04.1l-1.45,2.55c-.04.08-.08.1-.1.19l-.1.19c-.17.33-.35.6-.5.93-.02.04-.04.06-.04.1l-2.86,5.56c-.19.39-.66,1.37-.83,1.74l-.27.6c-.02.06-.04.12-.08.17-.04.08-.06.12-.08.21l-.19.41c-.19.41-.39.85-.56,1.26l-.56,1.31c-.04.08-.06.15-.08.21l-.25.62c-.12.27-.23.52-.33.81l-.48,1.2c-.04.08-.06.15-.08.21-.02.04-.04.08-.04.1-.02.04-.04.08-.04.12l-.56,1.45c-.02.08-.02.15-.06.21l-.37,1.06v.04l-.79,2.32s-.02.04-.04.1c0,.04-.02.06-.04.12,0,.02,0,.06-.02.1l-.04.15s-.02,0-.02.02l-.44,1.47s-.04.12-.04.12l-1.26,5.02s0,.02-.02.04l-.04.27c-.04.25-.1.48-.17.73-.08.41-.12.79-.21,1.2-.04.12-.04.31-.08.44-.04.1-.02.19-.04.29l-.12.77c-.02.08-.02.15-.04.23,0,.1-.02.15-.02.25l-.17,1.26c0,.08,0,.17-.02.27l-.21,2.36c-.02.33.02.83-.02,1.12-.06.46,0,1.41,0,1.97,0,.12.02.17.02.27,0,.19.02.33.02.56.02.1.02.19.04.27v.25c.06.68.12,1.35.27,2.03l.08.48c0,.1.02.17.02.27.02.06.04.15.06.23,0,.06,0,.1.02.12l.58,2.14c.23.7.46,1.41.81,2.07.12.25.23.48.37.75.06.15.12.25.19.37.19.33.46.75.66,1.04.06.06.08.12.12.19.19.27.41.54.62.81.04.04.02.04.06.06l1.06,1.12c.06.06.08.08.15.15.06.06.08.1.15.1.06.06.1.1.17.15l1.04.81c.56.41,1.31.91,1.93,1.22.5.25,1.02.52,1.51.75l.6.27s.06.04.1.06c.12.06.27.1.39.17l.62.23s.06.04.1.04l2.88.95c.06.02.08.02.12.04l2.51.62h.04l.33.06c.39.12,1.29.25,1.76.35.04.02.08.02.12.02.06.02.17.04.23.06l1.26.17c.35.06,1.12.15,1.51.19.12.02.17.02.27.04.06,0,.17,0,.27.02l.5.04c.17.02.31.04.54.04.19,0,.81.08,1.06.08.19,0,.31.06.54.06.35-.02.79.06,1.06.06.21,0,.41-.02.6,0,.64.04,1.55.02,2.22.02h1.14l1.64-.04c.1-.02.21,0,.29,0l1.37-.1c.17,0,.37,0,.54-.02l.52-.06c.17,0,.41,0,.56-.02l1.8-.19c.21-.04.81-.06,1.02-.1.12-.02.35-.02.5-.06l.77-.1c.41-.06.83-.1,1.24-.19.06-.02.19-.02.25-.04.1-.02.15-.02.25-.02l1-.17c.25-.06.46-.12.7-.15l.75-.12c.08,0,.15-.04.23-.04.29-.06.89-.17,1.16-.25l4.37-1.06c.31-.08.62-.19.91-.27l.97-.27.1-.04.1-.02s.08-.04.12-.04l.64-.23c.21-.04.44-.12.64-.21l1.91-.66s.08-.02.1-.04l.31-.12c.08-.02.12-.04.21-.06.97-.35,1.91-.75,2.84-1.14l.6-.27c.06-.02.12-.06.21-.08.54-.23,1.04-.5,1.55-.73.56-.25,1.66-.79,2.11-1.06.06-.04.12-.08.19-.1.06-.02.12-.06.21-.1l2.92-1.64,3.67-2.32s.1-.06.17-.1c.04-.04.1-.08.17-.12.1-.08.23-.17.33-.21l1.35-.97s.04-.02.08-.06l1.87-1.41c.1-.08.21-.15.31-.25.52-.39,1.04-.77,1.51-1.2l.85-.73c.37-.29.7-.62,1.08-.93l.6-.52c.19-.21.41-.35.6-.56.21-.21.62-.6.81-.75.04-.04.06-.04.08-.08l2.88-2.84c.06-.06.06-.08.12-.15l1.93-2.05c.06-.06.1-.1.15-.17.25-.25.58-.62.81-.89.25-.31.56-.6.81-.93.08-.1.19-.19.25-.29l2.07-2.51c.68-.85,1.37-1.72,2.01-2.57.17-.23.31-.44.48-.66.04-.04.08-.1.12-.15l.6-.85c.04-.06.08-.08.12-.15l1.31-1.82c.08-.1.17-.23.23-.35.04-.08.08-.12.12-.17l3.07-4.62c.27-.46.54-.89.81-1.35l.6-.97c.27-.41.52-.83.75-1.24.02-.04.04-.06.06-.1l1.47-2.51s.02-.06.04-.1l.89-1.55s.02-.06.04-.1l.15-.27c.17-.27.31-.56.46-.83l.41-.75c.25-.5.54-1,.79-1.47l.97-1.91c.06-.12.1-.25.19-.37l1.7-3.44c.06-.12.12-.23.19-.35.02-.08.06-.12.1-.21l.37-.77c.02-.08.06-.12.08-.21.1-.27.25-.5.37-.77.02-.08.04-.12.08-.21l.81-1.74c.31-.56.68-1.51.97-2.16l.41-.89c.23-.58.5-1.12.75-1.7l1.95-4.6c.04-.08.06-.15.08-.23l.83-2.01c.04-.06.06-.1.08-.19l1.47-3.69s.02-.06.04-.1c.52-1.41,1.1-2.8,1.62-4.23.21-.56.44-1.12.62-1.68l.35-.93c.19-.52.39-1.04.58-1.55.21-.62.48-1.24.68-1.89l.52-1.47.04-.1s.02-.06.02-.12c.04-.04.06-.15.08-.21l.89-2.53c.02-.06.06-.12.08-.19l.5-1.39c0-.06.02-.08.02-.12l.37-1.06s0,0,.02-.04l.44-1.29.06-.17c.15-.48.35-.97.5-1.47l.64-1.93c.06-.17.1-.31.15-.44.06-.15.1-.29.15-.41l1.29-3.86c.1-.29.21-.58.29-.85l.12-.46c.06-.12.1-.29.17-.41l.56-1.72c.02-.06.04-.12.06-.21l.5-1.51c.04-.12.08-.29.15-.44l.1-.33s.02-.06.02-.1c.06-.12.08-.27.15-.41.08-.27.27-.75.31-.97.06-.27.19-.52.25-.77l.81-2.47s.02-.06.04-.1l.1-.33s.02-.06.02-.1l.17-.56s.02-.02.04-.1c.02-.08.04-.15.08-.19l.21-.66c.12-.35.21-.73.35-1.06l.21-.73c.08-.17.12-.39.21-.6,0-.02.02-.04.04-.1l.19-.64c.02-.06.02-.04.04-.1l.15-.44c.04-.08.06-.15.08-.23.02-.06.02-.12.06-.21l.06-.23c.02-.08.04-.15.08-.19l.7-2.2c.02-.08.04-.12.06-.21.02-.08.04-.15.08-.21.06-.23.15-.54.23-.75.12-.31.19-.66.31-.97l.35-1.08c.02-.08.04-.12.06-.23l.17-.41c.02-.08.02-.15.06-.21.1-.33.23-.77.35-1.08l.06-.23c.02-.08.04-.15.06-.21.12-.27.19-.56.31-.85.08-.31.17-.6.27-.87l.56-1.7c.1-.31.25-.83.37-1.1l.79-2.34s.04-.12.06-.19l.7-2.03v-.04l.25-.7c.02-.06.04-.15.08-.23l.29-.83s.02-.06.04-.12l.93-2.63c.08-.27.19-.54.29-.83.12-.35.27-.7.37-1.06.02-.06.04-.12.06-.19l1.2-3.25s.04-.08.04-.1l.23-.64c.04-.08.06-.12.08-.19l.39-1.04c.1-.27.37-.85.39-1.06"/>
  </g>
</svg>