<?xml version="1.0" encoding="UTF-8"?>
<svg id="Capa_2" data-name="Capa 2" xmlns="http://www.w3.org/2000/svg" viewBox="0 0 329.4 329.4">
  <defs>
    <style>
      .cls-1 {
        fill: #01492b;
        fill-rule: evenodd;
      }
    </style>
  </defs>
  <g id="Capa_1-2" data-name="Capa 1">
    <path class="cls-1" d="M164.69,0c90.96,0,164.71,73.72,164.71,164.71s-73.75,164.69-164.71,164.69S0,255.67,0,164.71,73.74,0,164.69,0M164.69,214.68s.03-.02.05-.08c.21-.55.47-1.07.71-1.6l.32-.68s.05-.1.06-.16l.24-.49c.03-.06.05-.11.08-.18.02-.05.05-.11.06-.18l.18-.32c.03-.11.1-.23.16-.34l2.53-4.83c.21-.44.49-.83.71-1.26.03-.05.05-.08.08-.13.39-.66.78-1.34,1.2-1.99l.42-.68s.03-.06.06-.08l.28-.47s.06-.08.08-.13l.11-.16c.62-1,1.3-1.94,1.96-2.93l.41-.58s.06-.1.1-.15l2.71-3.68s.06-.1.1-.15c.05-.05.08-.08.11-.13l.44-.55c.29-.37.55-.76.84-1.12l.55-.68c.16-.19.31-.37.44-.57l.45-.53c.21-.26.42-.53.65-.79l1-1.22s.03-.03.06-.06l.66-.79s.03-.03.06-.06c.29-.36.66-.86.97-1.25.03-.03.08-.08.11-.13l2.03-2.53c.21-.21.41-.49.62-.73l.39-.47s.03-.05.06-.08c.06-.08.15-.15.21-.24.02-.03.03-.03.05-.06l.5-.6c.16-.18.31-.36.47-.53.18-.24.55-.66.78-.92l.36-.4c.11-.11.23-.28.34-.39.06-.05.06-.08.11-.13.18-.18.31-.36.47-.52.02-.03.03-.03.06-.06l.23-.28c.18-.18.45-.52.63-.7l.23-.26s.08-.08.13-.13l.81-.91s.06-.06.11-.11l.83-.91c.28-.31.55-.6.83-.89.05-.05.1-.08.13-.13.05-.03.06-.06.13-.11l.76-.81c.11-.15.24-.26.36-.39.13-.15.29-.28.42-.44l.13-.13c.13-.13.31-.28.42-.42.02-.03.02-.05.05-.08.19-.18.62-.57.75-.75.06-.1.16-.16.23-.24l1.98-1.94s.08-.1.13-.13l.63-.62s.08-.06.13-.1c.02-.03.03-.03.06-.05l.7-.66c.16-.18.47-.44.63-.6l1.22-1.34s.03-.05.05-.06l.92-1.07s.03-.03.06-.06l.84-.99c.31-.36.75-.87,1.02-1.22.28-.37.58-.7.87-1.07l.05-.06c.24-.28.47-.6.71-.87.28-.36.53-.7.81-1.04l.49-.63c.58-.79,1.2-1.59,1.75-2.41t.05-.06l.36-.53c.21-.24.73-1.04.91-1.31.03-.06.05-.08.08-.15.03-.05.06-.08.1-.15l.24-.39.05-.06.24-.37s.03-.05.05-.1l1.09-1.83s.06-.1.1-.16l.16-.31c.26-.42.47-.86.7-1.28l.49-.99c.03-.06.05-.11.08-.18l1.05-2.37s.02-.06.03-.1l.1-.26c.23-.55.41-1.09.58-1.64l.1-.28s.02-.06.03-.1c.02-.03.02-.05.03-.08l.02-.06.23-.76v-.02l.28-1c.02-.13.05-.26.08-.37.03-.13.06-.26.1-.42l.41-2.15.16-1.67c.02-.06.03-.15.05-.23.02-.23,0-.45.05-.7.02-.19.02-1.3.02-1.46,0-.32-.02-.65-.02-.96,0-.1-.02-.13-.02-.23v-.23c0-.1-.02-.13-.02-.24l-.11-1.13s-.02-.15-.02-.23l-.05-.41c0-.06,0-.1-.02-.11l-.1-.65c-.02-.18-.24-1.41-.29-1.57-.06-.26-.11-.53-.18-.79-.03-.13-.06-.26-.1-.39l-.19-.73-.02-.05-.23-.78v-.02l-.18-.52c-.02-.06-.03-.15-.05-.19l-.06-.19c-.05-.19-.32-.89-.42-1.17l-.08-.18c-.19-.52-.44-1.15-.68-1.64l-1.12-2.33c-.15-.31-.44-.86-.63-1.2-.02-.03-.03-.05-.05-.08-.7-1.25-1.57-2.64-2.35-3.78l-1.23-1.73c-.53-.79-1.59-2.12-2.24-2.9-.26-.34-.55-.68-.83-1.02l-.75-.87c-.11-.1-.23-.24-.32-.37-.21-.21-.39-.44-.6-.65l-.45-.52c-.13-.11-.23-.26-.36-.39l-1.18-1.26c-.06-.06-.08-.1-.11-.15-.08-.08-.18-.15-.26-.24l-.24-.24c-.08-.1-.16-.18-.23-.26l-2.58-2.58c-.15-.11-.26-.23-.39-.36l-.63-.58s-.08-.08-.13-.13c-.24-.24-.52-.45-.76-.71l-1.28-1.15c-.18-.18-.34-.31-.52-.49l-.52-.45s-.03-.05-.06-.06l-1.12-.97s-.05-.03-.06-.06c-.03-.03-.03-.02-.06-.05l-.26-.24s-.08-.05-.13-.1l-1.8-1.52s-.03-.03-.06-.06l-.34-.28s-.03-.03-.06-.06l-3.13-2.62c-.19-.18-.39-.36-.6-.52-.05-.02-.03-.02-.06-.05t-.06-.06l-.34-.28s-.03-.05-.06-.06l-1.59-1.36s-.03-.03-.06-.05c-.03-.03-.03-.02-.06-.05l-1.98-1.72s-.03-.03-.06-.05l-.32-.29s-.03-.02-.06-.05l-.34-.29c-.21-.21-.44-.37-.65-.57l-.92-.81c-.19-.16-.79-.71-1.04-.91l-2.41-2.12c-.19-.18-.57-.53-.73-.65l-1.62-1.44s-.03-.03-.06-.05c-.13-.13-.26-.26-.39-.36-.08-.06-.18-.16-.26-.23l-.53-.49c-.18-.15-.49-.39-.65-.55-.13-.13-.28-.21-.4-.36l-.05-.05s-.05-.03-.06-.06c-.03-.02-.03-.03-.06-.05-.23-.18-.42-.37-.65-.57l-.13-.13c-.23-.21-.5-.41-.73-.62l-.13-.13c-.28-.26-.86-.71-1.12-.96l-.13-.13s-.05-.02-.08-.05l-1.59-1.36s-.08-.06-.13-.11l-.26-.21c-.29-.26-.65-.53-.96-.79l-.55-.41c-.1-.08-.19-.15-.28-.23-.34-.23-.66-.49-1-.71l-.62-.37s-.05-.03-.08-.05c-.05-.03-.03-.03-.1-.05-.03.05-.1.06-.15.1-.05.03-.1.06-.15.08l-2.28,1.64c-.1.08-.18.15-.28.23-.08.08-.18.15-.28.23l-1.2.99s-.08.08-.15.11l-.18.18s-.03.03-.06.05l-1.52,1.31c-.19.18-.41.32-.58.5-.13.13-.26.24-.4.36l-1.1.97s-.05.03-.08.05c-.19.19-.47.41-.63.58-.15.15-.53.45-.71.63l-.73.63s-.1.08-.13.11c-.05.03-.08.08-.13.11l-.97.87c-.21.16-.41.36-.6.52-.18.15-.34.32-.53.47l-.89.79c-.13.13-.28.23-.39.34l-.47.41s-.03.03-.06.06l-.65.57s-.03.03-.06.06l-.52.45c-.13.13-.28.23-.39.34-.13.15-.28.21-.41.36-.15.15-.66.57-.86.75-.02.02-.03.03-.06.05l-.39.36s-.03.03-.06.05c-.05.05-.08.06-.13.1-.13.13-.26.23-.39.36l-.13.13s-.05.02-.06.05l-1.72,1.47s-.03.02-.06.05c-.03.02-.03.05-.06.06l-.73.63s-.03.03-.06.05t-.06.06l-1.38,1.17s-.03.03-.08.06l-1.2,1.04c-.31.26-.62.5-.92.78-.26.23-.55.44-.81.68l-.6.5s-.03.02-.06.05l-1.07.89s-.03.03-.06.05l-1.13.97s-.03.03-.06.05l-.99.87s-.08.05-.13.1c-.23.18-.65.58-.79.68-.08.06-.16.16-.24.24l-2.84,2.58c-.06.05-.08.06-.13.11s-.08.08-.13.13l-1.13,1.05s-.06.08-.11.13c-.1.08-.16.16-.26.26-.08.1-.16.15-.26.23l-1.46,1.47c-.42.42-.81.84-1.22,1.23-.05.06-.06.08-.11.13l-1.31,1.39c-.11.16-.37.41-.47.52-.03.06-.06.08-.11.13l-.11.15s-.03.03-.05.06c-.11.13-.24.24-.36.37-.02.03-.02.05-.05.08-.03.02-.05.03-.06.05t-.06.08l-.57.65s-.02.03-.05.08l-2.59,3.18-1.1,1.47s-.03.05-.05.08l-.62.86s-.02.05-.05.08c-.02.02-.03.02-.05.05l-.41.6c-.62.92-1.22,1.9-1.78,2.85-.05.06-.08.11-.11.16l-.36.62c-.49.86-.89,1.73-1.34,2.59-.15.29-.24.58-.37.84-.23.45-.7,1.62-.91,2.15l-.29.83c-.02.06-.03.13-.06.18l-.32,1.04s-.02.03-.02.03l-.19.68v.02l-.02.02-.13.49c-.1.42-.21.84-.31,1.28l-.02.06c0,.06,0,.02,0,.05-.05.13-.06.29-.1.41-.03.21-.08.4-.11.62,0,.13-.05.29-.06.41l-.1.65s0,.06-.02.11c0,.05-.02.08-.02.11-.05.36-.1.75-.11,1.1,0,.06-.02.16-.02.23l-.1,1.39v1.73l.06.92c.02.13,0,.29.02.45.03.32.1,1,.15,1.31l.05.34s0,.05.02.1c.02.05.03.15.03.21.02.19.06.44.1.63.03.15.06.31.08.42.02.06.03.15.03.21.02.08.03.13.05.19.02.08.03.16.05.21l.23,1c.03.13.06.28.1.39l.15.53.02.05.23.76c.1.32.23.66.32.99.11.36.31.83.44,1.18.02.06.05.11.06.18.15.41.32.81.5,1.2.13.29.24.58.39.86l.31.66.03.08c.13.34.58,1.15.78,1.56l.79,1.41c.21.37.42.73.65,1.1l1.04,1.64c.24.41.71,1.05.99,1.47.23.36.49.66.73,1.02.02.05.06.1.1.15l1.46,1.96c.03.06.06.1.11.13.42.58.84,1.12,1.28,1.67.08.1.16.18.23.28l.37.47s.05.05.06.06c.21.24.55.7.78.94l1.46,1.73s.06.1.11.15l1.96,2.22c.16.16.31.36.47.52l.5.47s.08.06.13.11l.75.71c.06.05.1.06.15.11.03.05.06.08.11.13.05.05.08.06.13.11.1.08.16.16.24.24.1.1.18.15.26.24.31.32,2.07,2.01,2.22,2.2.18.24.49.52.73.75l2.4,2.51c.24.26.47.52.71.76l.34.39c.11.11.26.24.36.37.05.05.08.08.13.13.03.03.03.05.05.06l.31.31c.13.15.26.32.41.47l.57.65c.15.15.29.28.42.45l.92,1.02c.19.21.37.45.57.65l.41.47s.03.03.05.08l.06.06.63.71s.02.03.05.06l.29.34c.15.19.29.34.45.53.03.05.06.08.1.13.03.03.03.05.06.06.02.03.03.05.06.08l.28.31c.19.26.41.5.6.75l.18.21s.03.03.06.06.05.1.1.13c.03.03.06.08.11.13l1.1,1.36c.15.19.29.37.44.57l1.18,1.47c.11.15.21.31.34.44l.83.99c.24.29.5.57.73.87l2.41,2.98s.06.06.11.13c.03.03.06.1.11.15.02.03.06.1.1.13l.23.28c.31.37.68.87.96,1.26l2.5,3.4c.06.1.13.18.21.28l.49.73s.08.1.11.15l.29.42c.15.21.26.4.4.6.03.05.06.1.11.16l1.47,2.3s.05.05.06.08l2.24,3.76c.21.37.57.97.75,1.34l.6,1.12c.05.11.11.23.16.32l.5.97c.23.45.44.89.65,1.31l.19.41c.06.15.15.28.21.42.08.23.29.6.39.83l.16.36c.11.24.24.49.36.75l.1.26c.18.34.31.68.47,1.04M49.12,140.08c.02.1.1.23.11.31l1.41,3.74c.08.24.29.76.36.99.02.02.02.03.03.06l.41,1.15s.02.05.03.08c.02.06.03.1.05.16l.16.42s.02.05.03.08t.02.08l.37,1.07c.1.28.19.57.31.83l.55,1.62v.02l.41,1.2s.05.08.06.15l.05.18c.06.13.41,1.17.44,1.33l.08.19v.02c.08.16.19.62.28.81.06.21.15.44.21.66l.23.68c.06.21.15.42.23.65.08.23.13.45.21.68.03.05.05.1.06.15.02.06.03.13.05.18l.78,2.37c.08.24.23.7.29.92l.24.75c.11.29.21.66.31.94.02.03.02.05.03.08l.05.16c.13.29.23.79.36,1.1l.16.5s.02.06.02.08l.84,2.56c.02.06,0,.02.02.06,0,.02.02.05.03.08.02.05.03.11.05.16.02.05.02.06.03.08l.21.68c.06.23.31.91.36,1.1l.79,2.43s.02.06.03.1l.37,1.17s.02.06.03.08c.02.02.03.06.03.08,0,.05,0,.06.02.1.02.03.02.06.03.08l.39,1.18c.05.15.1.28.13.42l1.26,3.76s0,.05.03.1c.13.41.24.84.41,1.25.1.28.19.63.29.86v.02l.02.02v.03l2.72,7.87c.19.49.36.99.55,1.49.02.06.03.1.05.15l.84,2.3c.02.06.03.1.06.16l.39,1.04s.02.06.03.1c0,.02.02.06.02.08l.21.57c.05.11.1.23.13.32l.26.66c.34.96.73,1.93,1.12,2.88l.24.65c.31.73.65,1.67.96,2.38l.19.47s.05.11.08.16l.75,1.81s.02.03.03.08l.37.86s.02.05.03.08l1.28,2.95c.05.11.1.21.15.32t.02.08l.11.23c.21.45.41.92.63,1.38l.96,2.04s.02.05.03.08l.1.23s.03.06.05.08l2.9,5.78.86,1.62s.06.08.08.15l1.77,3.13s.06.1.08.15l1.94,3.21c.06.1.11.18.18.28.02.05.05.1.08.15.02.03.05.06.08.13l2.32,3.48s.02.03.05.06l.05.06.42.6s.02.03.03.05l.37.52s.06.08.08.15l.15.19s.03.03.05.06l.29.39s.03.03.05.06l2.87,3.69s.06.08.1.13l.86,1.04s.03.05.06.06l.31.36s.06.06.1.11l1.69,1.9c.15.16.29.31.44.45l.44.47s.08.06.11.11c.05.05.06.08.1.11l1.12,1.12c.15.16.31.29.45.44l.23.23c.08.08.15.15.23.21.05.05.06.06.11.1l.57.57c.08.06.16.11.24.19.05.05.06.06.11.11.05.03.08.08.11.11l.83.73s.06.06.11.11l.73.62s.02.02.05.05l3.18,2.51s.05.03.08.03l.76.57s.05.03.06.05l.94.65c.24.18,1.13.78,1.47.97l.83.52c.06.02.08.05.15.08l.7.41s.05.03.06.05l.44.24c.55.29,1.1.63,1.65.91.05.02.1.05.15.08.23.13,1.44.75,1.64.83l.45.21c.32.15.66.31,1,.44l.92.41c.65.28,1.28.53,1.93.76.03.02.05.02.08.03l2.48.87c.06.02.11.02.18.05.21.05.39.13.58.18l2.03.57c.16.05.34.1.52.13.11.03.23.05.36.08l.28.06s.03.02.08.02l1.28.29.05.02c.06.02.03,0,.05.02l1.49.28c.44.1,1.05.16,1.43.26.19.03.37.05.58.08l1.17.18c.31,0,.68.1,1,.11.1.02.11,0,.21.02l3.5.31c.1-.02.13,0,.21.02l1.07.03h.42c.1,0,.13.02.21.02h2.03c.1,0,.11-.02.21-.02l1.51-.03c.08,0,.11-.02.19-.03l.84-.05c.06-.02.15,0,.23-.02.03,0,.13-.02.18-.03.08,0,.16.02.23,0,.28-.05.53-.05.79-.08.06,0,.15-.02.21-.03l1.69-.19c.23-.03.55-.1.76-.13l1.77-.36c.44-.08.87-.19,1.28-.29l.47-.13c.26-.08.47-.16.7-.19.23-.08,1.02-.32,1.23-.41.05-.02.11-.05.16-.06l.65-.24s.11-.05.16-.06l1.39-.62c.26-.1.5-.24.75-.36l1.54-.96c.29-.19.84-.62,1.1-.87.06-.05.06-.06.13-.11.15-.11.31-.31.45-.45l.62-.73s.06-.06.1-.1c.02-.05.05-.08.08-.13.21-.26.37-.53.55-.81.05-.1.11-.18.16-.29.18-.28.32-.58.47-.87.1-.19.18-.41.26-.62l.31-.81s.03-.06.03-.08c.02-.03,0,0,.02-.05l.36-1.25c.03-.13.05-.29.08-.41l.08-.34c.03-.16.06-.39.1-.57l.05-.4c.02-.08.1-.58.11-.79v-.21s.02-.13.03-.21c.03-.36.08-1.26.08-1.67l-.02-1.33c0-.1-.02-.11-.02-.21l-.02-.42c0-.08-.02-.11-.02-.21,0-.16,0-.29-.02-.41-.02-.08,0-.16,0-.23-.02-.06-.03-.13-.03-.19-.02-.15-.05-.29-.05-.42,0-.15-.02-.28-.02-.42-.02-.05-.03-.11-.03-.18-.02-.08-.02-.13-.03-.21,0-.06-.02-.13-.03-.21,0-.15-.11-.92-.15-1.04v-.11c-.02-.15-.06-.26-.06-.39l-.18-.96s-.02-.06-.02-.08c-.05-.23-.06-.44-.11-.66l-.21-.91s-.02-.11-.03-.18c-.02-.02-.03-.06-.03-.1l-.52-2.06c-.03-.11-.05-.23-.08-.34t-.03-.08l-.02-.06v-.02l-.05-.19c-.13-.37-.23-.75-.32-1.12l-.75-2.28s0-.02-.02-.06l-.44-1.25s-.03-.05-.03-.08l-1.22-3.13c-.05-.13-.08-.21-.13-.32l-.41-.94c-.21-.53-.44-1.04-.68-1.56l-.4-.92c-.03-.06-.05-.1-.08-.16l-1.69-3.42c-.15-.31-.83-1.67-.99-1.93l-.39-.75s-.03-.02-.05-.05c-.02-.02-.02-.05-.03-.06-.18-.36-.62-1.1-.81-1.44l-2.66-4.49s-.03-.03-.05-.06l-.37-.63s-.05-.06-.08-.11l-.1-.15s-.03-.05-.05-.06l-2.79-4.24s-.05-.08-.1-.13l-1.75-2.5c-.06-.1-.11-.16-.18-.24l-1.7-2.33c-.28-.36-.52-.66-.78-1.02l-.68-.87c-.42-.53-1.22-1.57-1.67-2.12l-1.3-1.62c-.36-.42-.91-1.1-1.28-1.49l-.24-.32s-.08-.08-.1-.13l-1.13-1.31s-.08-.08-.1-.13c-.05-.03-.08-.06-.11-.11-.11-.16-.28-.31-.4-.47l-.58-.65c-.23-.28-.57-.63-.78-.91l-.23-.23s-.05-.08-.1-.11c-.15-.15-.28-.32-.41-.45-.08-.1-.15-.16-.23-.24-.03-.05-.05-.08-.1-.13l-.23-.23c-.15-.15-.47-.55-.65-.7l-1.05-1.17s-.08-.06-.11-.11l-.89-.91s-.03-.08-.1-.13l-.65-.68c-.06-.05-.06-.06-.11-.11l-1.1-1.12c-.08-.08-.13-.16-.21-.24l-4.67-4.47c-.19-.19-.55-.47-.71-.63l-.89-.81c-.28-.24-.92-.83-1.12-.97l-1.94-1.64c-.08-.06-.16-.13-.24-.19-.08-.08-.15-.15-.26-.21-.05-.05-.06-.06-.11-.08-.45-.37-.89-.76-1.36-1.12-.47-.32-.91-.73-1.38-1.07l-1.65-1.26c-.52-.39-1.02-.78-1.54-1.15l-.26-.16c-.1-.08-.16-.13-.26-.19-.05-.03-.08-.06-.13-.11l-.26-.18c-.39-.28-.79-.55-1.17-.83-.36-.26-.71-.5-1.05-.75-.92-.63-1.86-1.26-2.79-1.9t-.06-.03l-.89-.58s-.08-.06-.13-.08l-1.22-.79s-.08-.05-.13-.08l-1.72-1.09s-.05-.02-.06-.03c-.1-.06-.18-.11-.28-.18l-1.2-.71c-.39-.24-.92-.58-1.31-.79l-1.41-.84s-.1-.05-.15-.08c-.02-.02-.05-.02-.06-.05-.03-.02-.05-.02-.08-.03l-3.65-2.04s-.03-.03-.08-.03l-2.75-1.47s-.08-.05-.15-.08l-5.65-2.82-4.6-2.09c-.11-.05-.21-.1-.32-.13l-1.33-.57s-.05-.03-.1-.05l-1.73-.71c-.23-.1-.42-.16-.63-.24-.11-.05-.21-.08-.32-.13l-.63-.26c-.06-.02-.11-.03-.16-.06-.05-.02-.13-.03-.16-.05-.23-.1-.42-.16-.66-.24l-.23-.1s-.06-.03-.1-.03l-.39-.15s-.05-.03-.08-.05c-.44-.16-.87-.32-1.31-.45l-.16-.06c-.18-.05-.34-.13-.5-.19l-1.15-.37c-.26-.11-.7-.26-1-.36l-.34-.11c-.06-.02-.11-.03-.16-.03l-1.18-.39s-.03-.02-.05-.02l-.11-.03h-.02s-.05-.02-.08-.03l-.11-.03s0-.02-.02-.02l-.39-.11h-.03v-.02c-.19-.03-.37-.1-.57-.15l-2.27-.63s-.03-.02-.03-.02l-2.3-.57s-.13-.02-.18-.03l-2.32-.49h-.11s-.05-.02-.08-.03c-.47-.08-.97-.13-1.46-.21-.15-.02-.26-.02-.41-.05l-.39-.05c-.13-.02-.28-.02-.41-.05-.13,0-.28-.03-.41-.05-.13,0-.31,0-.42-.02-.05-.02-.16,0-.23-.02-.05,0-.15-.02-.19-.02l-.87-.02h-.45c-.15,0-.26.02-.42.02M280.26,140.08c-.29,0-.55-.02-.86-.02-.16,0-.28.02-.44.02-.15,0-.31-.02-.44,0-.34.02-.7.05-1.05.08l-2.07.24s-.05.02-.08.02c-.06.02-.13.02-.19.03-.06.02-.13.02-.21.03l-.55.1c-.08.03-.15.03-.19.05-.08,0-.13.02-.19.03l-.92.18s-.13.02-.19.03l-.63.15s-.06.02-.08.03l-1.64.37c-.1.02-.24.05-.36.08-.06.03-.11.03-.16.05-.13.05-.26.06-.37.1-.05.02-.02.02-.08.03l-.44.1c-.24.08-.47.13-.71.19-.13.05-.23.08-.34.11l-.52.15s-.05.02-.1.02l-.06.02c-.37.11-.73.23-1.1.34l-.79.24c-.16.06-.34.11-.5.16l-.18.06c-.24.05-.83.28-1.18.37-.34.11-.79.29-1.15.41l-.49.16c-.23.1-.45.16-.66.24-.44.18-.89.32-1.31.49l-.65.24-1.94.76c-1.07.42-2.15.86-3.21,1.33l-1.65.7c-.45.21-1.13.49-1.54.7l-2.12.97-.08.05-.39.18c-.31.13-.91.45-1.2.57-.11.05-.19.1-.31.16l-2.96,1.49c-.11.03-.19.08-.29.13-.1.06-.19.1-.31.16t-.06.03l-.23.13c-.63.31-1.26.68-1.9.99l-2.25,1.25s-.03.02-.06.02l-.21.13s-.05.03-.08.03t-.06.05l-.36.19c-.1.06-.19.11-.28.18l-.29.13s-.05.03-.08.05c-.03.02-.03.03-.06.03-.02.03-.03.03-.06.05-.03.02-.05.03-.08.05l-1.13.65s-.1.06-.13.1c-.58.31-1.3.75-1.83,1.05l-4.41,2.74s-.08.06-.13.1c-.06.03-.1.05-.15.08l-1.22.79s-.08.05-.13.1c-.36.24-.73.47-1.09.71l-3.16,2.17c-.1.06-.18.11-.28.18l-2.59,1.9s-.08.05-.13.08l-3.03,2.32s-.06.06-.13.1l-2.46,1.99c-.28.24-.58.47-.86.71-.28.24-.57.47-.84.71l-1.56,1.34c-.15.16-.32.28-.47.42l-.65.58s-.03.02-.05.05l-1.12,1.04s-.02.02-.06.05l-.16.15c-.16.15-.36.34-.5.49-.05.06-.08.06-.13.11-.08.06-.15.15-.23.21-.05.05-.06.06-.11.11l-1.02,1c-.08.05-.16.13-.23.21l-1.46,1.46s-.06.08-.11.11c-.23.26-.49.49-.71.73l-.39.39c-.05.06-.05.08-.1.13-.05.03-.08.08-.11.11-.08.08-.15.15-.23.23l-.65.68s-.06.06-.11.11l-1.23,1.33s-.03.03-.06.05l-.21.23s-.06.06-.1.13l-1.23,1.34-.05.05c-.06.06-.06.08-.11.13l-1.22,1.36c-.18.21-.39.42-.58.65-.05.06-.13.13-.19.21l-.78.92s-.03.02-.06.05t-.05.06s-.02.03-.03.06c-.18.19-.36.39-.53.6l-.6.71c-.05.06-.06.08-.11.13-.02.02-.03.02-.05.05t-.05.06l-.1.11s-.08.1-.1.13l-.81.99c-.06.06-.13.15-.21.23l-2.38,3c-.13.16-.26.32-.39.5-.03.03-.06.06-.1.11-.03.05-.06.08-.1.13l-2.11,2.79c-.15.19-.26.36-.39.53l-2.95,4.18-3.16,4.86s-.05.08-.1.13l-.08.15c-.05.1-.11.18-.16.26l-.34.58c-.23.36-.45.75-.68,1.1l-.62,1.05s-.03.05-.03.08l-1.13,1.99c-.03.06-.06.08-.08.15l-.08.15c-.13.26-.28.47-.39.73-.02.03-.03.05-.03.08l-2.24,4.34c-.15.31-.52,1.07-.65,1.36l-.21.47s-.03.1-.06.13c-.03.06-.05.1-.06.16l-.15.32c-.15.32-.31.66-.44.99l-.44,1.02c-.03.06-.05.11-.06.16l-.19.49c-.1.21-.18.4-.26.63l-.37.94c-.03.06-.05.11-.06.16-.02.03-.03.06-.03.08-.02.03-.03.06-.03.1l-.44,1.13c-.02.06-.02.11-.05.16l-.29.83v.03l-.62,1.81s-.02.03-.03.08c0,.03-.02.05-.03.1,0,.02,0,.05-.02.08l-.03.11s-.02,0-.02.02l-.34,1.15s-.03.1-.03.1l-.99,3.92s0,.02-.02.03l-.03.21c-.03.19-.08.37-.13.57-.06.32-.1.62-.16.94-.03.1-.03.24-.06.34-.03.08-.02.15-.03.23l-.1.6c-.02.06-.02.11-.03.18,0,.08-.02.11-.02.19l-.13.99c0,.06,0,.13-.02.21l-.16,1.85c-.02.26.02.65-.02.87-.05.36,0,1.1,0,1.54,0,.1.02.13.02.21,0,.15.02.26.02.44.02.08.02.15.03.21v.19c.05.53.1,1.05.21,1.59l.06.37c0,.08.02.13.02.21.02.05.03.11.05.18,0,.05,0,.08.02.1l.45,1.67c.18.55.36,1.1.63,1.62.1.19.18.37.29.58.05.11.1.19.15.29.15.26.36.58.52.81.05.05.06.1.1.15.15.21.32.42.49.63.03.03.02.03.05.05l.83.87s.06.06.11.11c.05.05.06.08.11.08.05.05.08.08.13.11l.81.63c.44.32,1.02.71,1.51.96.39.19.79.41,1.18.58l.47.21s.05.03.08.05c.1.05.21.08.31.13l.49.18s.05.03.08.03l2.25.75s.06.02.1.03l1.96.49h.03l.26.05c.31.1,1,.19,1.38.28.03.02.06.02.1.02.05.02.13.03.18.05l.99.13c.28.05.87.11,1.18.15.1.02.13.02.21.03.05,0,.13,0,.21.02l.39.03c.13.02.24.03.42.03.15,0,.63.06.83.06.15,0,.24.05.42.05.28-.02.62.05.83.05.16,0,.32-.02.47,0,.5.03,1.22.02,1.73.02h.89l1.28-.03c.08-.02.16,0,.23,0l1.07-.08c.13,0,.29,0,.42-.02l.41-.05c.13,0,.32,0,.44-.02l1.41-.15c.16-.03.63-.05.79-.08.1-.02.28-.02.39-.05l.6-.08c.32-.05.65-.08.97-.15.05-.02.15-.02.19-.03.08-.02.11-.02.19-.02l.78-.13c.19-.05.36-.1.55-.11l.58-.1c.06,0,.11-.03.18-.03.23-.05.7-.13.91-.19l3.42-.83c.24-.06.49-.15.71-.21l.76-.21.08-.03.08-.02s.06-.03.1-.03l.5-.18c.16-.03.34-.1.5-.16l1.49-.52s.06-.02.08-.03l.24-.1c.06-.02.1-.03.16-.05.76-.28,1.49-.58,2.22-.89l.47-.21s.1-.05.16-.06c.42-.18.81-.39,1.22-.57.44-.19,1.3-.62,1.65-.83.05-.03.1-.06.15-.08.05-.02.1-.05.16-.08l2.28-1.28,2.87-1.81s.08-.05.13-.08c.03-.03.08-.06.13-.1.08-.06.18-.13.26-.16l1.05-.76s.03-.02.06-.05l1.46-1.1c.08-.06.16-.11.24-.19.41-.31.81-.6,1.18-.94l.66-.57c.29-.23.55-.49.84-.73l.47-.41c.15-.16.32-.28.47-.44.16-.16.49-.47.63-.58.03-.03.05-.03.06-.06l2.25-2.22s.05-.06.1-.11l1.51-1.6s.08-.08.11-.13c.19-.19.45-.49.63-.7.19-.24.44-.47.63-.73.06-.08.15-.15.19-.23l1.62-1.96c.53-.66,1.07-1.34,1.57-2.01.13-.18.24-.34.37-.52.03-.03.06-.08.1-.11l.47-.66s.06-.06.1-.11l1.02-1.43c.06-.08.13-.18.18-.28.03-.06.06-.1.1-.13l2.4-3.61c.21-.36.42-.7.63-1.05l.47-.76c.21-.32.41-.65.58-.97.02-.03.03-.05.05-.08l1.15-1.96s.02-.05.03-.08l.7-1.22s.02-.05.03-.08l.11-.21c.13-.21.24-.44.36-.65l.32-.58c.19-.39.42-.78.62-1.15l.76-1.49c.05-.1.08-.19.15-.29l1.33-2.69c.05-.1.1-.18.15-.28.02-.06.05-.1.08-.16l.29-.6c.02-.06.05-.1.06-.16.08-.21.19-.39.29-.6.02-.06.03-.1.06-.16l.63-1.36c.24-.44.53-1.18.76-1.68l.32-.7c.18-.45.39-.87.58-1.33l1.52-3.6c.03-.06.05-.11.06-.18l.65-1.57s.05-.08.06-.15l1.15-2.88s.02-.05.03-.08c.41-1.1.86-2.19,1.26-3.31.16-.44.34-.87.49-1.31l.28-.73c.15-.41.31-.81.45-1.22.16-.49.37-.97.53-1.47l.41-1.15.03-.08s.02-.05.02-.1c.03-.03.05-.11.06-.16l.7-1.98s.05-.1.06-.15l.39-1.09s.02-.06.02-.1l.29-.83s0,0,.02-.03l.34-1,.05-.13c.11-.37.28-.76.39-1.15l.5-1.51c.05-.13.08-.24.11-.34.05-.11.08-.23.11-.32l1-3.01c.08-.23.16-.45.23-.66l.1-.36c.05-.1.08-.23.13-.32l.44-1.34s.03-.1.05-.16l.39-1.18c.03-.1.06-.23.11-.34l.08-.26s.02-.05.02-.08c.05-.1.06-.21.11-.32.06-.21.21-.58.24-.76.05-.21.15-.41.19-.6l.63-1.93s.02-.05.03-.08l.08-.26s.02-.05.02-.08l.13-.44s.02-.02.03-.08c.02-.06.03-.11.06-.15l.16-.52c.1-.28.16-.57.28-.83l.16-.57c.06-.13.1-.31.16-.47,0-.02.02-.03.03-.08l.15-.5s.02-.03.03-.08l.11-.34c.03-.06.05-.11.06-.18.02-.05.02-.1.05-.16l.05-.18c.02-.06.03-.11.06-.15l.55-1.72c.02-.06.03-.1.05-.16.02-.06.03-.11.06-.16.05-.18.11-.42.18-.58.1-.24.15-.52.24-.76l.28-.84c.02-.06.03-.1.05-.18l.13-.32c.02-.06.02-.11.05-.16.08-.26.18-.6.28-.84l.05-.18c.02-.06.03-.11.05-.16.1-.21.15-.44.24-.66.06-.24.13-.47.21-.68l.44-1.33c.08-.24.19-.65.29-.86l.62-1.83s.03-.1.05-.15l.55-1.59v-.03l.19-.55s.03-.11.06-.18l.23-.65s.02-.05.03-.1l.73-2.06c.06-.21.15-.42.23-.65.1-.28.21-.55.29-.83.02-.05.03-.1.05-.15l.94-2.54s.03-.06.03-.08l.18-.5c.03-.06.05-.1.06-.15l.31-.81c.08-.21.29-.66.31-.83"/>
  </g>
</svg>