<?xml version="1.0" encoding="UTF-8"?>
<svg id="Capa_2" data-name="Capa 2" xmlns="http://www.w3.org/2000/svg" viewBox="0 0 500.09 126.07">
  <defs>
    <style>
      .cls-1 {
        fill: #1c1a16;
        fill-rule: evenodd;
      }

      .cls-2 {
        fill: #16130e;
      }
    </style>
  </defs>
  <g id="Capa_1-2" data-name="Capa 1">
    <g>
      <path class="cls-1" d="M37.32,51.71l-2.17-1.22c-.19-.1-.42-.22-.6-.33-.17-.09-.34-.18-.51-.27l-.7-.37c-.41-.2-.81-.42-1.22-.63l-2.8-1.37s-.07-.03-.11-.05c-.42-.21-.85-.38-1.27-.59l-.53-.24s-.07-.03-.1-.04l-.43-.19c-.07-.03-.14-.06-.22-.1-.29-.13-.57-.25-.86-.38-.87-.37-1.75-.72-2.63-1.07-.51-.2-1.26-.49-1.79-.67-.15-.05-.3-.12-.45-.17-.08-.03-.15-.05-.23-.08-.04-.01-.06-.02-.11-.04l-.35-.12c-.47-.17-1.15-.39-1.63-.54l-.94-.29c-.16-.05-.32-.09-.47-.14-.32-.1-.65-.18-.97-.27-.08-.03-.15-.04-.24-.06-.08-.02-.16-.04-.25-.07l-2-.47c-.83-.18-2.29-.45-3.18-.53-.18-.02-.37-.04-.56-.06-.18-.01-.56-.06-.72-.06l-.28-.02c-.05,0-.11,0-.16,0-.29-.02-.62-.02-.92-.02-.15,0-.28,0-.43,0l-.31.02s-.07,0-.11,0c-.27.02-.54.04-.8.08-.95.13-1.91.34-2.77.76l-.15.07c-.05.02-.09.04-.15.07-.03.01-.04.02-.07.04-.21.12-.42.24-.62.38-.13.09-.26.18-.38.28-.2.17-.39.34-.57.53l-.3.36c-.1.12-.2.25-.28.38-.11.19-.23.37-.32.56-.03.05-.05.1-.07.15-.02.05-.05.1-.07.14-.22.49-.37,1-.46,1.54-.04.25-.06.5-.07.76v.43c0,.3.04.61.09.9.1.59.25,1.13.45,1.69.1.27.2.52.3.77l.58,1.55c.11.26.19.52.29.78l.6,1.67s.02.05.03.1c.01.04.02.06.04.1.1.29.2.6.32.89.09.24.19.55.27.79l.48,1.39c.02.07.05.13.07.2.05.14.09.26.14.4l6.56,19.59s.02.07.03.1l.39,1.09c.1.26.18.53.28.79.1.26.18.53.28.79.07.19.14.39.21.58l.65,1.76c.12.32.25.64.37.96.16.45.36.89.52,1.35.18.47.42,1.06.61,1.53l.58,1.41s.03.07.04.1c.05.12.1.25.16.37l.8,1.88c.11.25.22.49.33.74l.41.92c.03.06.06.12.08.18l.29.64s.02.06.04.09c.26.55.5,1.09.77,1.63.03.06.06.11.09.18.05.12.13.23.18.35.05.13.12.24.18.36.12.24.24.47.36.71l.09.18.91,1.75s.03.06.05.09l.1.18s.03.05.05.08c.02.03.03.06.04.09l.14.25c.03.06.06.12.1.18.04.05.06.12.09.17.12.2.22.4.34.6.02.03.03.05.05.09.13.23.26.45.39.68.03.06.06.11.1.17.26.45.53.89.8,1.34l.2.34s.03.05.05.08l.56.9c.03.05.06.1.1.16l1.28,1.92s.03.05.05.08c.02.03.04.05.06.08l.44.63c.22.31.45.61.67.92.08.11.15.2.23.31l1.77,2.23c.18.22.37.43.55.65.01.01.02.02.03.03.02.02.02.02.03.04.25.28.49.57.75.85l.19.21s.04.05.07.08c.13.13.25.28.38.41l.26.28s.09.09.13.13l.26.27c.08.08.2.19.26.27.1.13.23.22.34.34l.54.53s.04.04.07.06l1.04.96s.04.03.07.06l.14.12s.09.09.14.13c.05.04.1.09.14.13l.18.15s.02.01.04.03c.01,0,.02.02.03.03t.04.03s.1.08.14.12l.15.12c.29.24.58.49.88.72.05.04.1.08.15.12l1.37,1.03c.1.07.2.15.31.22l1.6,1.07c.06.04.11.07.16.1l1.5.9c.25.15.51.29.77.43.44.24.88.46,1.33.68l.9.43c.06.03.12.05.19.09l1.5.64c.51.2,1.03.4,1.55.58.06.02.13.04.2.07.22.09.57.19.8.27.96.32,1.93.58,2.91.83l1.98.43c.93.19,1.82.31,2.75.45l2.18.23c.08,0,.17.02.25.02l.88.06c.13,0,.25,0,.38.02.08,0,.45,0,.52.02h1.55s.01,0,.01,0c.23,0,.44,0,.67,0,.06,0,.09,0,.16,0,.05,0,.12,0,.17,0,.05,0,.09,0,.16,0l.33-.02c.06,0,.11,0,.17,0,.14-.02.42-.02.57-.03l1.04-.09c.21-.03.42-.04.62-.07.53-.07,1.01-.13,1.52-.21l1.73-.34c.88-.19,1.84-.48,2.7-.77.05-.01.08-.02.13-.04.21-.08.43-.15.64-.23l2.55-1.07c.2-.1.4-.19.59-.28l.8-.41c.17-.08.51-.27.65-.37.35-.23.71-.43,1.02-.71l.09-.08c.15-.13.3-.28.42-.45.01-.02.02-.03.03-.05l.04-.05s.1.16.14.21l.16.18c.24.23.49.43.76.62.28.2.86.55,1.18.71.05.02.08.04.12.06.15.08.3.16.46.23l1.53.71s.07.04.12.05l1.22.5c.16.07.33.13.49.2l.76.28c.09.03.17.06.26.09.72.25,1.94.59,2.71.74.39.07.77.16,1.15.22l1.2.19c.35.05.72.08,1.07.13.16.02.32.02.47.05l.8.06s.04,0,.07,0c.03,0,.06,0,.1,0l1.14.06c.07,0,.11,0,.17,0,.83,0,1.67.02,2.5,0,.05,0,.06,0,.12,0l.89-.04c.06,0,.18-.02.25-.02.12,0,.6-.05.75-.06l.49-.04c.16-.02.33-.03.49-.05,1.24-.14,2.5-.32,3.71-.56l1.32-.28c.15-.03.29-.07.44-.1l.42-.1c.57-.14,1.12-.3,1.68-.46l.82-.25c.07-.02.14-.04.2-.06l.6-.2c.46-.15.91-.33,1.37-.49.07-.02.13-.05.19-.07.31-.13.63-.24.94-.38.07-.03.13-.05.19-.08.19-.07.37-.16.55-.24.06-.03.13-.05.19-.08.06-.03.12-.05.18-.08l.36-.17s.06-.03.09-.04l.82-.4c.32-.16.65-.34.96-.5l.26-.14c.15-.09.43-.23.6-.33l.93-.55c.25-.15.5-.3.74-.46l.24-.16c.32-.21.65-.42.96-.64.03-.02.05-.03.08-.05l.55-.39c.05-.04.1-.07.15-.11l.46-.34c.51-.38,1.01-.77,1.5-1.17.1-.08.19-.16.29-.24l.22-.18c.18-.15.63-.54.79-.68l.03-.03.25-.22c.09-.1.24-.21.35-.32.03-.03.04-.04.07-.07l.41-.39s.04-.03.07-.06c.11-.11.55-.55.61-.6l1.06-1.08c.04-.05.08-.09.13-.14.02-.02.05-.04.06-.07l.39-.42s.04-.04.06-.07c.03-.03.03-.04.06-.07l.19-.21s.03-.04.06-.07l.2-.21c.04-.05.08-.09.12-.14l.12-.14s.03-.04.06-.07c.11-.11.35-.41.46-.54l1.46-1.81.64-.84c.04-.05.07-.1.11-.15.14-.21.3-.41.45-.62l2.11-3.1s.03-.05.05-.08c.14-.21.27-.44.41-.66l.3-.5c.28-.43.54-.89.8-1.34l.68-1.19s.03-.05.05-.08l.14-.26c.16-.25.27-.52.43-.78.02-.03.03-.05.04-.09l.56-1.05s.03-.05.05-.09c.02-.03.03-.05.04-.09.03-.06.06-.11.09-.17l.89-1.77c.03-.06.06-.12.09-.18l.78-1.62s.02-.06.04-.09l.13-.28c.03-.06.05-.12.09-.18.02-.03.02-.06.04-.09.02-.03.03-.05.04-.09.01-.03.03-.05.04-.09l.46-1.01c.03-.06.05-.13.09-.18l.45-1.02c.17-.41.36-.81.53-1.22.13-.31.27-.62.4-.94l.39-.95c.3-.77.62-1.52.91-2.29l.6-1.54c.05-.13.09-.25.14-.38.03-.06.05-.13.07-.19.03-.07.05-.13.08-.2l.29-.78c.09-.26.19-.52.29-.78l.21-.58c.02-.06.05-.14.07-.2.1-.26.19-.52.28-.79.02-.06.05-.13.07-.19.01-.04.02-.06.03-.1l.18-.5c.09-.21.17-.47.24-.68.01-.04.02-.06.04-.1.07-.22.19-.58.28-.79.08-.19.13-.39.2-.59.03-.07.05-.14.07-.2.05-.13.09-.26.14-.39l.27-.79c.31-.94.63-1.86.95-2.8.18-.54.36-1.06.53-1.6l.27-.8c.89-2.67,1.76-5.35,2.65-8.03l1.47-4.4c.03-.07.05-.13.07-.19l.48-1.4c.12-.36.26-.72.38-1.08l.14-.4s.02-.06.03-.1c.03-.06.05-.13.07-.2.11-.33.24-.66.36-.98.02-.07.05-.13.07-.2.26-.71.51-1.43.79-2.14.03-.07.05-.13.07-.19.16-.46.35-.9.52-1.35.2-.55.35-1.1.45-1.69.05-.3.08-.62.09-.93v-.35c0-.27-.03-.54-.07-.8-.07-.48-.2-.94-.39-1.37-.08-.18-.15-.36-.25-.53-.01-.03-.02-.04-.04-.07-.12-.25-.34-.57-.52-.8l-.14-.18c-.13-.17-.33-.37-.49-.51l-.36-.3c-.16-.13-.33-.25-.52-.36-.02-.01-.04-.03-.07-.04-.03-.02-.05-.03-.07-.04-.02,0-.04-.03-.06-.04l-.14-.07s-.04-.02-.07-.04l-.76-.34c-.22-.09-.44-.15-.66-.23-.06-.02-.12-.03-.18-.05-.57-.17-1.26-.28-1.87-.34-.13,0-.28-.02-.41-.03l-.42-.02c-.2,0-.88-.03-1.04,0-.09.01-.22,0-.3,0h-.29c-.09,0-.2.03-.29.03s-.19.01-.28.02c-.28.01-.58.06-.85.09-.36.03-.72.09-1.08.14-.76.11-2.09.36-2.84.55l-.75.18c-.49.12-.99.25-1.47.39-.66.19-1.36.39-2.02.61l-1.28.42c-.15.05-.32.1-.47.16-.29.12-.61.21-.9.32l-.68.25c-.82.3-1.64.63-2.45.96-.58.23-1.16.48-1.74.73-.36.15-.71.31-1.07.47-.08.03-.14.06-.22.1-.3.14-.67.29-.95.43-.03.02-.06.03-.1.05-.04.01-.06.03-.1.05l-.33.15s-.06.03-.1.05l-.31.15s-.07.03-.1.04l-.53.26s-.07.03-.1.05l-1.75.87c-.07.04-.14.07-.2.11l-.31.16s-.06.03-.11.06c-.41.21-.81.43-1.22.63-.04.02-.06.03-.1.05l-1.1.6c-.17.08-.33.18-.5.27-.21.11-.66.37-.9.5l-.59.34c-.07.04-.13.07-.2.12-.03.02-.06.03-.1.05-.03.02-.08.05-.11.05.06-.12.15-.39.2-.52.28-.83.45-1.38.66-2.24.22-.89.39-1.88.46-2.8l.04-.42s0-.06,0-.09c.01-.11,0-.23.02-.34.02-.14.02-.38.02-.53,0-.13.01-.23.01-.36l-.05-1.32c-.07-.9-.19-1.73-.37-2.63-.16-.8-.49-2.04-.79-2.85-.02-.05-.03-.09-.04-.13l-.15-.4c-.15-.39-.3-.78-.47-1.16l-.76-1.61c-.04-.08-.08-.17-.13-.25-.12-.19-.25-.5-.38-.71-.01-.02-.02-.03-.03-.05-.13-.25-.35-.62-.49-.87-.14-.23-.27-.46-.41-.68-.05-.07-.09-.15-.14-.22-.02-.04-.04-.07-.07-.11-.02-.04-.05-.08-.07-.11-.03-.04-.05-.07-.07-.11-.03-.04-.05-.07-.07-.11-.17-.27-.4-.59-.58-.87-.43-.65-.91-1.27-1.37-1.89l-.16-.2s-.05-.06-.08-.1l-.73-.91c-.16-.21-.33-.4-.49-.6-.02-.03-.05-.06-.08-.1l-.42-.49s-.02-.03-.04-.05c-.02-.02-.03-.03-.04-.05l-.42-.48c-.11-.12-.23-.27-.34-.39-.01-.02-.03-.02-.04-.04l-.13-.15s-.05-.06-.08-.1c-.04-.03-.05-.06-.08-.09l-.09-.09s-.03-.03-.04-.05l-.13-.15s-.06-.06-.09-.09l-.7-.76s-.06-.06-.09-.09c-.04-.04-.05-.06-.09-.1-.06-.08-.16-.15-.22-.23-.07-.08-.15-.15-.23-.23-.03-.03-.05-.06-.08-.1-.06-.06-.12-.12-.19-.18-.07-.07-.16-.15-.22-.23-.07-.09-.56-.56-.68-.69l-.09-.09c-.13-.11-.24-.24-.36-.36l-.1-.09c-.06-.05-.12-.12-.18-.18l-.32-.31c-.15-.12-.28-.27-.42-.4l-.14-.13c-.16-.14-.31-.3-.47-.44l-.71-.66c-.08-.07-.19-.18-.28-.26l-.14-.12s-.03-.03-.05-.05c-.02-.02-.03-.02-.05-.04l-.2-.17s-.03-.03-.04-.05l-.82-.72s-.03-.02-.05-.04l-.29-.25s-.03-.02-.04-.04l-1.03-.89s-.07-.05-.1-.08l-.4-.33c-.2-.16-.39-.34-.59-.5-.04-.03-.06-.05-.1-.08l-1.09-.91s-.06-.05-.1-.08l-.4-.33c-.18-.17-.52-.43-.69-.59l-.49-.42c-.17-.14-.33-.29-.49-.42l-.24-.21s-.03-.02-.05-.04l-.15-.13c-.11-.1-.27-.23-.39-.33-.09-.09-.2-.17-.29-.26l-.39-.34s-.03-.03-.05-.04c-.04-.03-.06-.05-.1-.09-.02-.01-.02-.02-.04-.04-.02-.02-.03-.02-.05-.04l-.2-.17s-.06-.05-.09-.08l-.73-.63c-.14-.14-.4-.33-.54-.47-.12-.12-.26-.22-.39-.34t-.05-.04s-.03-.03-.05-.05l-1.69-1.49s-.03-.02-.05-.04l-.87-.77s-.03-.02-.05-.04c-.13-.13-.35-.29-.48-.42-.02-.02-.03-.02-.05-.04l-.23-.21s-.03-.03-.05-.05l-.15-.13s-.03-.02-.05-.04l-.82-.72s-.03-.02-.05-.04c-.02-.02-.02-.02-.04-.04-.12-.09-.23-.2-.35-.29l-1.68-1.41s-.07-.05-.11-.08l-.76-.6c-.41-.31-.82-.63-1.25-.93-.45-.31-.91-.61-1.38-.88-.56-.32-1.14-.59-1.76-.79-.1-.03-.19-.05-.29-.08-.2-.06-.4-.1-.6-.13-.55-.08-1.04-.08-1.59,0-.2.03-.42.08-.6.13-.38.1-.74.23-1.08.38-.17.08-.33.15-.49.23l-.29.15c-.21.13-.43.24-.64.37-.04.03-.07.04-.11.07l-.97.65c-.41.28-.8.59-1.19.89l-1.36,1.1c-.36.3-.72.6-1.08.92l-.2.17c-.06.06-.14.11-.2.17-.02.02-.02.02-.04.04-.02.02-.03.03-.05.04l-.49.43c-.1.1-.32.28-.43.38l-1.4,1.23s-.03.02-.05.04l-.09.08c-.09.08-.29.26-.39.34l-.19.17s-.03.02-.05.04l-.29.26s-.03.02-.05.04l-.48.43c-.11.11-.23.2-.33.3l-.39.34s-.03.02-.05.04l-.24.21s-.02.03-.04.04c-.02.02-.03.02-.05.04l-1.02.88s-.03.03-.05.05c-.04.03-.06.05-.09.08l-.1.09c-.15.14-.33.27-.48.42l-.34.29c-.13.11-.25.23-.39.34l-.19.17c-.16.14-.45.37-.59.5l-.14.13s-.02.02-.05.04c-.02.02-.03.02-.05.04-.03.03-.07.06-.1.09l-.68.59s-.07.05-.1.08c-.26.23-.53.44-.79.66l-.69.58s-.07.05-.11.09l-.09.08c-.14.11-.26.22-.39.33l-.39.33s-.07.05-.1.08c-.03.03-.06.05-.1.08-.04.03-.07.06-.1.09-.03.03-.07.05-.1.08l-.88.75c-.07.06-.13.12-.2.17l-.14.13s-.03.02-.05.04l-.1.08s-.03.03-.05.05c-.02.02-.03.02-.05.04l-.91.8s-.03.03-.05.05l-.48.43c-.1.07-.19.18-.29.26l-.38.35s-.06.05-.09.08l-.76.7c-.11.1-.21.21-.33.31-.02.02-.03.03-.05.05l-1.34,1.29c-.09.07-.16.16-.23.23l-1.25,1.28c-.07.08-.16.15-.22.23-.08.09-.24.23-.31.32-.03.04-.05.06-.08.09-.02.02-.03.03-.04.04l-.39.43s-.06.06-.09.09c-.02.02-.02.03-.04.05-.01.02-.03.03-.05.05-.09.09-.17.19-.25.28-.02.02-.03.03-.05.05l-.64.72s-.03.03-.04.05c-.02.02-.02.03-.04.05l-.17.2s-.05.06-.08.1l-.08.1c-.05.07-.11.13-.17.2l-.41.49s-.06.06-.08.1c-.31.4-.66.8-.97,1.21-.23.3-.57.72-.79,1.03l-.3.42c-.26.35-.51.7-.75,1.07-.1.15-.19.29-.29.43l-.29.44c-.15.22-.28.44-.42.67l-.27.45c-.17.28-.33.58-.5.86l-.16.29s-.04.08-.06.12c-.02.04-.04.07-.06.12l-.84,1.71c-.46,1.03-.86,2.08-1.19,3.17l-.16.57c-.1.39-.2.79-.28,1.18-.15.73-.21,1.17-.3,1.88,0,.09-.03.22-.03.32,0,.05,0,.12,0,.17-.03.18-.06.7-.06.86,0,.07,0,.11,0,.17,0,.06,0,.12,0,.18,0,.13,0,.23,0,.36s0,.23,0,.35c0,.98.13,2.02.28,2.99.1.62.25,1.18.4,1.78.13.5.43,1.44.62,1.93.03.09.06.19.1.27M75.92,92.56c-.09-.2-.17-.41-.27-.61l-.07-.15c-.06-.15-.14-.29-.21-.44l-.09-.2c-.06-.14-.18-.36-.23-.5-.03-.08-.08-.16-.12-.24l-.12-.24c-.13-.25-.25-.52-.38-.77l-.3-.58c-.03-.06-.06-.13-.1-.19l-.36-.67c-.11-.22-.31-.56-.44-.8l-1.32-2.22s-.02-.03-.03-.04l-.88-1.36s-.04-.06-.06-.09c-.09-.11-.15-.23-.24-.35l-.17-.25s-.04-.06-.06-.09l-.3-.43c-.04-.06-.08-.11-.12-.17l-1.47-2.01c-.17-.23-.39-.53-.57-.75l-.13-.16s-.04-.06-.06-.08c-.02-.03-.05-.06-.07-.08-.02-.03-.04-.05-.06-.08l-1.43-1.76c-.14-.17-.29-.34-.43-.52l-.5-.59c-.07-.07-.13-.17-.19-.24l-.7-.89c-.09-.11-.17-.21-.26-.33l-.65-.8s-.04-.05-.06-.08c-.02-.03-.04-.06-.06-.08-.01-.02-.02-.02-.03-.04l-.1-.12c-.12-.15-.24-.28-.36-.43l-.16-.2s-.02-.02-.03-.04c-.01-.02-.02-.03-.03-.04-.02-.03-.04-.05-.06-.08-.09-.1-.18-.21-.27-.31l-.17-.2s-.01-.02-.03-.04l-.37-.43s-.01-.02-.03-.04c-.02-.02-.02-.02-.04-.04l-.24-.27c-.12-.12-.22-.26-.34-.38l-.54-.61c-.08-.09-.17-.18-.25-.27l-.34-.37c-.08-.09-.16-.19-.24-.27l-.17-.19s-.02-.03-.03-.04c-.03-.03-.05-.04-.07-.07-.06-.08-.15-.15-.21-.23l-.2-.22c-.15-.15-.27-.3-.42-.45l-1.42-1.48c-.14-.14-.32-.29-.43-.44-.08-.11-1.12-1.11-1.31-1.3-.05-.05-.1-.09-.15-.14-.05-.05-.1-.1-.14-.15-.03-.02-.05-.03-.08-.06-.02-.02-.04-.04-.07-.07s-.05-.05-.07-.07l-.45-.42s-.05-.04-.08-.06l-.3-.28c-.09-.1-.18-.2-.27-.3l-1.16-1.32s-.04-.05-.06-.08l-.86-1.02c-.13-.14-.35-.41-.46-.56-.01-.02-.02-.02-.03-.04l-.22-.27c-.05-.06-.09-.11-.13-.17-.25-.32-.52-.64-.77-.97-.02-.03-.04-.06-.06-.09l-.86-1.16s-.04-.06-.06-.09c-.14-.2-.29-.4-.42-.6-.17-.25-.44-.63-.58-.87l-.61-.97c-.14-.21-.26-.42-.38-.64l-.46-.84c-.12-.24-.38-.71-.47-.92,0-.02,0-.03-.02-.05l-.19-.39c-.08-.16-.15-.34-.22-.5-.11-.23-.21-.47-.3-.71-.01-.03-.02-.06-.04-.1-.08-.21-.19-.49-.26-.7-.06-.2-.14-.39-.19-.59l-.13-.45v-.03s-.1-.31-.1-.31c-.02-.07-.04-.16-.05-.24l-.14-.59s-.01-.08-.02-.12c0-.04-.02-.07-.03-.12,0-.03-.01-.08-.02-.12-.02-.08-.03-.16-.05-.25-.02-.11-.05-.27-.06-.37,0-.04,0-.09-.02-.12,0-.03,0-.03-.01-.06l-.02-.19c-.03-.19-.07-.59-.09-.79,0-.08,0-.18-.02-.26l-.03-.55v-1.02l.05-.82s.01-.09.01-.13c0-.21.04-.44.07-.66,0-.02.01-.03.01-.06,0-.03,0-.04,0-.06l.05-.38c.01-.08.04-.17.05-.25,0-.12.04-.24.06-.36.01-.07.03-.18.05-.24,0-.02,0,0,0-.03,0,0,0-.03,0-.03.05-.26.12-.51.18-.76l.08-.28s0-.01,0-.02c0,0,0,0,0,0l.12-.4s0-.01,0-.02l.2-.61s.02-.07.04-.11l.18-.49c.12-.33.39-1.01.53-1.28.08-.16.15-.33.23-.49.26-.52.51-1.03.79-1.53l.21-.37s.03-.06.06-.1c.34-.57.7-1.14,1.06-1.69l.24-.35s.02-.03.03-.04c.01-.02.02-.03.03-.04l.36-.5s.02-.03.03-.04l.65-.87,1.53-1.88s.01-.02.03-.03l.34-.39s.02-.02.03-.04c.01-.01.02-.02.03-.03.02-.02.02-.02.03-.04.07-.08.14-.15.21-.23,0-.02.02-.02.03-.04l.07-.08s.04-.04.07-.07c.06-.08.21-.22.28-.31l.77-.82s.03-.04.07-.07c.24-.24.47-.49.71-.74l.87-.87c.05-.05.1-.09.15-.14.05-.05.1-.1.15-.15.03-.03.05-.05.07-.08l.67-.63s.05-.05.07-.07c.03-.03.05-.04.07-.06l1.68-1.53c.05-.04.1-.1.15-.14.09-.06.34-.3.47-.41.03-.02.04-.04.07-.06l.59-.51s.02-.01.04-.03l.67-.57s.02-.02.04-.03l.63-.53s.02-.02.04-.03l.36-.3c.15-.14.32-.26.47-.4.18-.16.37-.3.55-.46l.71-.61s.02-.01.04-.03l.81-.7s.02-.01.04-.03c.01-.01.02-.02.03-.03l.43-.37s.02-.03.04-.04c.02-.02.02-.02.04-.03l1.01-.87s.02-.02.04-.04l.08-.06c.07-.07.16-.13.23-.2.03-.03.05-.03.07-.06.02-.02.03-.02.04-.03l.23-.2s.02-.02.03-.03c.12-.1.42-.35.51-.44.08-.07.16-.13.24-.21.07-.07.16-.13.23-.2l.31-.27s.02-.03.04-.04l.38-.34s.02-.02.04-.03l.27-.24c.07-.07.16-.13.23-.2l.53-.47c.11-.08.21-.19.31-.28.12-.09.23-.21.35-.3l.58-.51s.05-.05.08-.08c.03-.02.05-.04.07-.06l.43-.38c.11-.11.34-.29.42-.37.11-.11.27-.23.38-.34.01,0,.02-.02.04-.04l.66-.58c.08-.07.16-.13.23-.2.11-.11.23-.2.35-.3l.89-.77s.02-.02.04-.03l.11-.09s.05-.04.08-.07l.71-.59c.05-.04.1-.08.16-.13.05-.04.11-.08.16-.13l1.35-.97s.06-.03.09-.05c.03-.02.07-.03.08-.05.04,0,.02,0,.06.03.02,0,.03.02.05.03l.37.22c.2.13.39.28.59.42.06.04.11.09.17.13l.33.25c.18.14.39.3.57.46l.15.13s.05.04.08.06l.94.8s.02.01.04.03l.08.07c.15.15.49.41.66.57l.08.07c.13.13.28.24.42.37l.08.07c.13.11.25.23.38.33.02.01.02.02.04.03.01.02.02.02.04.03.02.01.02.02.03.03.07.08.16.13.24.21.1.1.27.24.38.34l.31.28c.05.04.1.1.15.14.08.06.15.14.23.2.02.02.02.01.04.03l.95.85c.1.07.31.28.43.38l1.43,1.26c.14.12.49.45.61.54l.55.47c.12.12.26.22.38.34l.2.17s.02.02.04.03l.19.17s.01.01.03.03l1.17,1.01s.02.01.04.03c.02.01.02.02.03.03l.95.81s.02.02.04.03l.19.17s.02.01.04.03c.02.02.02.01.04.03.12.1.24.2.36.3l1.85,1.55s.02.02.04.03l.19.17s.02.02.04.03l1.06.9s.05.04.07.07l.15.13s.02.01.04.03c.02.01.02.03.04.04l.66.58s.02.02.03.03l.31.27c.1.1.2.18.3.27l.76.69c.15.15.3.27.45.42.03.03.05.04.08.07l.37.35c.07.07.15.15.22.22l1.52,1.52c.05.05.1.1.15.15l.14.15c.05.05.1.1.15.15.03.03.04.05.06.08l.7.75c.07.07.14.15.21.23l.27.3c.12.13.22.27.34.39.07.07.13.16.2.23l.44.52c.17.19.33.4.49.59.38.46,1,1.25,1.32,1.72l.72,1.02c.47.67.98,1.49,1.38,2.23,0,.02.02.03.03.05.11.19.28.52.38.7l.66,1.37c.14.29.28.66.4.98l.04.1c.06.16.22.57.25.69l.04.1s.02.08.03.12l.1.31h0s.14.46.14.46c0,.01,0,.03,0,.03l.11.43c.02.08.04.16.06.24.04.15.06.32.11.47.03.09.16.82.17.92l.06.38s0,.03,0,.06l.03.25s.01.09.02.13l.06.68c0,.06,0,.08,0,.13,0,.05,0,.1,0,.14,0,.05,0,.07,0,.13,0,.19.01.37.01.57,0,.09,0,.74-.01.86-.02.14-.01.27-.02.42,0,.04-.01.09-.02.13l-.11.99-.24,1.28c-.02.08-.03.17-.05.24-.02.07-.04.15-.05.23l-.16.58s0,0,0,0l-.14.47s0,.01,0,.03c0,.02,0,.03-.02.05,0,.02-.01.03-.02.05l-.05.16c-.11.34-.22.65-.35.97l-.06.16s-.02.04-.02.05l-.62,1.41s-.03.06-.05.09l-.28.59c-.14.25-.26.51-.41.76l-.11.19s-.03.06-.05.09l-.65,1.09s-.01.02-.03.05l-.14.22s-.02.03-.03.05l-.14.22s-.03.05-.06.09c-.02.03-.03.05-.05.09-.1.15-.41.63-.53.78l-.21.3s-.02.02-.03.04c-.33.49-.69.95-1.04,1.43l-.28.37c-.16.2-.31.41-.48.61-.14.17-.27.36-.42.52-.02.02-.02.01-.03.03-.17.22-.35.42-.52.64-.16.2-.42.5-.6.71l-.5.59s-.02.02-.04.04l-.54.62s-.02.02-.04.04l-.71.8c-.1.1-.28.25-.38.35l-.41.39s-.02.02-.04.03c-.02.02-.04.04-.07.07l-.38.36s-.05.04-.07.07l-1.16,1.15s-.1.09-.14.15c-.08.1-.33.33-.44.44-.01.02-.02.02-.03.04-.07.09-.17.18-.25.25-.03.03-.04.05-.07.08-.08.09-.18.17-.25.26-.07.08-.15.14-.21.22l-.45.47s-.04.05-.07.08c-.02.03-.04.05-.07.07-.17.17-.33.35-.49.53l-.49.52s-.04.05-.07.08l-.48.53s-.05.05-.07.08l-.14.14c-.11.11-.27.3-.38.42l-.14.15s-.02.02-.04.04c-.1.1-.17.21-.27.3-.03.03-.04.05-.06.08-.07.07-.14.16-.21.23l-.2.23c-.13.16-.36.4-.47.55-.08.11-.18.2-.27.31l-.3.35s-.02.02-.03.04c-.04.05-.08.1-.13.15-.01.02-.01.02-.03.04l-.23.28c-.13.14-.24.3-.37.44l-1.19,1.48s-.04.05-.07.09c-.18.22-.4.52-.58.73-.02.02-.02.02-.03.04l-.4.47s-.02.02-.04.04l-.59.71c-.13.15-.26.32-.39.47l-.26.32c-.08.11-.17.21-.26.32l-.32.41c-.18.21-.34.44-.51.65l-.25.33s-.04.05-.06.08c-.02.03-.04.05-.06.08l-1.59,2.18s-.04.05-.06.08l-.24.35c-.38.58-.79,1.14-1.16,1.73l-.06.09s-.04.05-.05.09l-.17.26s-.02.03-.03.05l-.25.4c-.25.38-.47.79-.7,1.18-.02.03-.03.05-.05.09-.13.24-.29.49-.42.74l-1.49,2.86c-.03.06-.07.13-.09.19l-.1.2s-.03.07-.05.11c0,.03-.03.06-.04.1l-.14.29s-.03.06-.05.1l-.19.4c-.14.32-.29.63-.42.95-.01.03,0,.02-.03.04M7.67,48.51c.09,0,.16,0,.25,0h.79s.09.02.12.03c.04,0,.1,0,.13,0,.07,0,.17,0,.25.01.08,0,.17.02.24.03.08,0,.16,0,.24.02l.24.03c.08.02.15.02.24.03.28.05.58.08.86.14.02,0,.04,0,.05,0,.02,0,.05,0,.06,0l1.37.28s.08.02.11.02l1.36.33s.02,0,.02,0l1.34.37c.12.03.22.07.34.1t0,0h.02l.23.07s0,0,0,0l.06.02s.03,0,.05.02c0,0,0,0,0,0l.07.02s.02,0,.02,0l.7.22s.06.02.09.04l.2.06c.18.06.44.14.59.2l.68.23c.1.03.2.07.29.11l.1.03c.26.09.52.19.78.28.01,0,.03.01.05.02l.23.09s.04.01.05.02l.15.05c.13.05.25.09.38.15.03,0,.06.02.1.03.03.01.06.03.1.04l.38.15c.06.02.12.04.18.07.13.05.25.1.38.15l1.03.42s.03,0,.05.02l.79.34c.06.02.12.05.19.08l2.72,1.23,3.35,1.66s.06.03.09.05l1.63.87s.03.02.04.02l2.15,1.21s.02.01.04.02c.02,0,.03.02.04.03.03.01.05.03.08.05l.83.49c.23.12.55.32.78.46l.7.43c.05.03.11.06.16.1.02,0,.03.02.04.02l1.01.63s.05.03.08.05l.71.46s.05.03.08.05l.52.34s.03.01.04.02c.55.37,1.1.74,1.65,1.11.21.15.42.28.62.44.22.17.46.32.69.49l.16.11s.05.03.07.05c.05.04.1.07.16.11l.15.12c.31.22.61.44.91.67l.97.75c.28.2.54.43.82.64.27.21.53.43.8.64.03.02.04.04.07.06.05.04.1.08.15.11.05.04.09.08.14.12l1.15.96c.12.09.5.43.67.58l.53.47c.1.1.3.26.41.37l2.76,2.65s.08.09.13.14l.65.66s.03.04.06.07l.39.4s.03.04.06.07l.51.54s.04.04.06.07l.63.68c.1.1.29.33.38.42l.13.14s.04.05.06.07c.04.05.08.09.13.14.08.09.16.19.24.28.02.02.04.04.06.07l.13.14c.12.16.32.37.46.53l.34.38c.08.1.17.18.25.28.02.03.04.04.06.07.02.03.04.04.06.07l.67.78s.04.05.06.08l.15.18c.21.24.54.64.74.9l.77.95c.27.33.74.93.99,1.25l.4.53c.15.2.3.4.45.6l1.01,1.37c.04.05.07.1.11.16l1.03,1.47s.03.05.05.08l1.65,2.5s.02.02.03.04l.05.08s.03.05.05.08l.23.37s.02.03.03.04l1.57,2.64c.11.21.37.65.47.85,0,.02.02.03.02.04.01.01.01.02.02.04l.23.43c.09.16.5.96.59,1.13l.99,2.03s.03.06.04.09l.25.55c.13.3.27.61.4.91l.24.56c.03.06.05.12.07.19l.72,1.86s.01.03.01.04l.26.74s.01.02.02.05l.43,1.35c.06.22.12.44.19.66l.03.12h0s.01.04.01.04c0,.02,0,.03,0,.05.02.06.04.13.06.2l.3,1.22s.01.04.02.05c0,.04.01.07.02.11l.12.54c.04.13.04.26.07.39,0,.01.01.04.01.05l.1.56c0,.08.03.15.04.23,0,.02,0,.05,0,.06.02.07.08.53.09.63,0,.04,0,.08.01.12,0,.05,0,.08.01.12,0,.03.01.08.02.12,0,.08.02.15.02.24,0,.07.01.16.02.24,0,.04.02.08.02.12,0,.04,0,.09,0,.13.01.08.02.16.02.24,0,.05,0,.07,0,.13v.24c0,.06.02.08.02.12v.79c0,.24-.01.77-.04,1,0,.04,0,.09-.01.12,0,.05,0,.08,0,.12,0,.13-.05.42-.05.47l-.04.23c-.02.11-.03.25-.06.34l-.04.2c-.02.07-.03.17-.05.24l-.21.74s0,0,0,.02c0,.01-.01.03-.02.05l-.18.48c-.05.13-.1.25-.16.36-.09.18-.18.36-.27.53-.03.06-.06.11-.1.17-.1.16-.21.32-.32.47-.02.02-.04.05-.05.07-.02.02-.03.04-.06.07l-.36.43c-.08.08-.18.2-.27.26-.03.03-.04.03-.07.06-.16.16-.48.4-.66.52l-.9.56c-.14.08-.29.16-.44.22l-.83.36s-.06.02-.09.04l-.38.14s-.07.03-.1.04c-.12.04-.59.2-.73.23-.13.03-.25.08-.41.12l-.27.08c-.25.06-.5.13-.75.18l-1.04.21c-.13.01-.32.05-.45.07l-1,.13s-.09,0-.12.02c-.17.02-.31.02-.47.04-.04,0-.08,0-.13,0-.03,0-.09.01-.12.02-.04,0-.08,0-.13,0l-.5.04c-.05,0-.06,0-.12,0l-.89.03c-.05,0-.07,0-.12,0h-1.19c-.05,0-.07,0-.13,0-.04,0-.09,0-.13,0-.05,0-.06-.01-.12-.01l-.63-.02s-.06,0-.12,0l-2.07-.17s-.07,0-.12,0c-.19-.02-.41-.07-.59-.07l-.69-.11c-.13-.02-.23-.02-.35-.05-.22-.05-.59-.09-.84-.15l-.88-.17s0,0-.03,0c0,0-.02,0-.02,0l-.76-.17s-.03,0-.05-.01l-.16-.04c-.08-.01-.14-.03-.21-.05-.11-.03-.21-.04-.31-.08l-1.19-.33c-.12-.03-.23-.07-.35-.11-.04-.01-.06-.01-.1-.03l-1.47-.51s-.03,0-.05-.02c-.38-.14-.76-.29-1.14-.45l-.55-.23c-.2-.08-.4-.17-.59-.27l-.27-.13c-.11-.04-.83-.41-.96-.48-.03-.02-.06-.03-.09-.04-.33-.17-.65-.36-.98-.54l-.25-.14s-.02-.01-.04-.02l-.42-.25s-.05-.03-.08-.05l-.49-.31c-.19-.12-.72-.46-.87-.57l-.55-.38s-.02-.01-.04-.03l-.46-.33s-.03-.02-.04-.03l-1.88-1.48s-.02,0-.03-.03l-.43-.37s-.04-.03-.07-.06l-.49-.43s-.04-.04-.06-.06c-.03-.03-.04-.03-.07-.06-.04-.05-.09-.08-.14-.13l-.34-.32s-.04-.03-.07-.05c-.04-.05-.08-.09-.13-.13-.05-.05-.09-.08-.14-.13-.09-.09-.18-.18-.26-.27l-.66-.65s-.03-.04-.06-.07c-.02-.03-.04-.04-.07-.07l-.26-.27c-.08-.09-.17-.18-.25-.27l-.99-1.11s-.04-.04-.06-.07l-.18-.21s-.02-.02-.03-.03l-.51-.62s-.04-.05-.06-.07l-1.7-2.19s-.02-.03-.03-.04l-.17-.23s-.02-.02-.03-.04l-.09-.12s-.03-.05-.06-.08l-.21-.3-.03-.04-.25-.35s-.01-.02-.03-.04c-.01-.01-.01-.02-.02-.04l-1.37-2.06s-.03-.05-.05-.08c-.02-.02-.04-.06-.05-.08-.04-.05-.06-.11-.1-.16l-1.14-1.89s-.03-.06-.05-.09l-1.04-1.86s-.03-.06-.05-.09l-.51-.94-1.71-3.43s-.02-.03-.02-.04l-.06-.14s-.01-.03-.02-.04l-.56-1.21c-.13-.26-.24-.55-.37-.81l-.06-.14s0-.02-.02-.04c-.03-.06-.05-.12-.08-.18l-.76-1.74s-.01-.03-.02-.05l-.22-.51s-.01-.03-.02-.05l-.44-1.07s-.03-.06-.04-.1l-.12-.28c-.19-.42-.39-.97-.57-1.42l-.15-.37c-.23-.57-.45-1.14-.66-1.71l-.15-.38c-.03-.06-.05-.13-.07-.2l-.13-.34s0-.03-.02-.05c0-.02,0-.03-.02-.05l-.23-.62s-.02-.06-.03-.1l-.49-1.35s-.02-.06-.04-.1c-.11-.29-.2-.59-.31-.88l-1.61-4.65s0-.01,0-.02c0,0,0,0,0-.01,0,0,0,0,0,0-.05-.13-.11-.35-.17-.49-.09-.25-.16-.51-.25-.75,0-.02,0-.03-.02-.05l-.74-2.23c-.02-.09-.05-.16-.08-.24l-.23-.7s-.01-.03-.02-.05c0-.02,0-.03-.01-.06,0,0,0-.03-.02-.04,0-.02-.01-.03-.02-.05l-.23-.69s-.01-.03-.02-.05l-.47-1.44c-.02-.12-.18-.51-.21-.65l-.13-.4s0-.03-.02-.05c-.01-.04-.02-.07-.03-.1,0-.02-.01-.03-.02-.05-.01-.02,0,0-.01-.03l-.49-1.52s-.01-.03-.02-.05l-.1-.29c-.07-.19-.14-.48-.21-.65l-.03-.1s0-.03-.02-.05c-.06-.16-.12-.38-.18-.55l-.14-.44c-.03-.14-.13-.4-.18-.55l-.45-1.39s-.02-.07-.03-.1c-.01-.04-.02-.06-.03-.1-.05-.13-.09-.26-.13-.4-.04-.13-.09-.26-.13-.39l-.13-.4c-.04-.13-.09-.27-.13-.4-.04-.11-.11-.37-.16-.47,0,0,0-.01,0-.01l-.04-.11c-.03-.09-.23-.71-.27-.78l-.03-.11s-.02-.06-.03-.1l-.24-.69s0,0,0,0l-.33-.97c-.06-.15-.12-.33-.17-.49l-.22-.63s0-.03-.02-.05c0-.02,0-.03-.02-.05l-.09-.25s-.02-.06-.03-.1c0-.02-.01-.03-.02-.05l-.24-.67s0-.03-.02-.05c-.04-.12-.16-.43-.21-.58l-.83-2.2c-.02-.05-.06-.13-.07-.19M144.17,48.51c-.02.1-.13.37-.18.48l-.18.48s-.02.06-.04.09l-.11.29s-.01.04-.02.05l-.55,1.5s-.02.06-.03.1c-.05.16-.12.32-.17.48-.05.13-.1.26-.14.39l-.43,1.22s-.02.03-.02.05l-.14.4s-.03.06-.03.1l-.11.32s0,.02,0,.02l-.32.93s-.02.07-.03.1l-.36,1.07h0c-.06.13-.12.37-.17.51l-.26.79c-.04.13-.09.26-.14.39-.05.14-.08.27-.13.4-.01.03-.03.07-.04.1l-.03.11c-.05.14-.12.34-.17.49-.01.03-.01.06-.02.1-.03.07-.05.13-.07.2-.01.04-.02.07-.03.1l-.16.5c-.05.15-.09.3-.15.45-.03.09-.07.24-.11.34-.01.04-.02.07-.03.1,0,.04-.02.06-.03.1l-.33,1s-.02.06-.03.1l-.03.1s-.02.07-.03.11c0,.03-.02.06-.03.09l-.06.2s0,.03-.02.05l-.1.3s-.01.03-.02.05c-.03.09-.06.19-.09.28l-.11.32c-.06.16-.1.33-.16.5l-.1.3s-.03.06-.03.1c0,.04,0,.02-.01.05l-.09.24s0,.05-.01.06l-.05.15s0,.03-.01.05l-.37,1.14c-.03.11-.09.23-.12.35-.02.1-.1.33-.14.45-.02.07-.04.13-.06.19,0,.02-.01.04-.02.05l-.05.15c-.02.06-.04.13-.06.2l-.23.7s-.02.06-.03.1l-.26.79c-.02.07-.04.14-.07.2l-.06.2c-.04.14-.09.26-.14.39l-.59,1.78c-.02.06-.04.12-.07.19-.02.06-.04.13-.06.2l-.3.89c-.07.23-.16.45-.23.68l-.02.07h0s-.2.6-.2.6c-.01.02,0,0-.01.02l-.17.49-.02.05-.22.64s-.02.06-.03.1l-.41,1.17s-.03.07-.04.09c0,.02,0,.04-.02.05,0,.02,0,.03-.02.05l-.24.68c-.1.29-.21.58-.31.87-.08.25-.18.48-.27.72l-.16.43c-.09.26-.19.51-.29.77-.24.65-.5,1.3-.75,1.95,0,.02,0,.03-.02.05l-.68,1.7s-.02.05-.04.08l-.38.94s-.02.06-.04.09l-.9,2.13c-.11.26-.24.52-.35.78l-.18.41c-.14.3-.32.73-.45,1l-.37.81s-.03.06-.04.09c-.05.12-.12.24-.17.36-.02.04-.02.05-.04.09l-.17.36s-.03.06-.04.09c-.03.05-.06.11-.09.17l-.79,1.59c-.03.06-.06.12-.09.18l-.45.87c-.11.23-.24.46-.36.68l-.19.34c-.07.13-.14.26-.21.39l-.07.12s-.01.03-.02.04l-.4.72s-.02.03-.02.04l-.68,1.17s-.01.03-.02.04c-.11.19-.22.39-.35.58l-.28.45c-.13.2-.25.41-.38.61l-1.41,2.14s-.03.04-.05.08c-.04.05-.07.11-.11.16l-.6.84s-.03.04-.05.07l-.28.38s-.04.05-.06.07c-.07.1-.15.2-.22.3-.29.4-.61.8-.92,1.19l-.95,1.16c-.04.05-.08.1-.12.14-.12.15-.25.28-.37.42-.11.13-.26.31-.38.42-.02.02-.03.04-.06.07l-.89.95s-.03.04-.06.07l-1.33,1.31s-.02.02-.04.03c-.09.07-.28.26-.38.35-.09.09-.19.16-.28.25l-.27.25c-.17.14-.33.29-.5.43l-.4.34c-.22.19-.46.37-.69.55-.05.04-.1.08-.15.12l-.86.65s-.02.02-.04.03l-.62.44s-.1.07-.16.11l-.08.05s-.05.03-.07.05l-1.7,1.08-1.35.76s-.06.03-.09.05c-.03.01-.06.03-.08.04-.21.12-.72.37-.97.48-.24.11-.48.24-.73.34-.04.02-.06.03-.09.04l-.27.12c-.43.19-.87.37-1.31.53-.04.01-.06.02-.1.03l-.14.05s-.03.01-.05.02l-.88.3c-.1.03-.2.08-.3.1l-.3.1s-.04.01-.05.02h-.05s-.05.03-.05.03l-.45.13c-.13.04-.28.09-.41.12l-2.02.48c-.14.04-.4.09-.54.11-.04,0-.07.02-.11.03l-.34.06c-.12.01-.22.04-.33.06l-.45.08c-.05,0-.07,0-.12.02-.03,0-.09,0-.12.01-.18.04-.38.06-.57.08l-.35.04c-.07.02-.17.02-.23.03-.1.02-.37.04-.47.06l-.84.08c-.06,0-.18,0-.25.01l-.24.02c-.08,0-.17,0-.25.02l-.63.03s-.09,0-.13,0l-.76.03h-.53c-.3,0-.73,0-1.03-.02-.08,0-.18,0-.27,0-.14,0-.33-.03-.5-.03-.1,0-.16-.02-.24-.02-.12,0-.4-.04-.49-.04s-.16,0-.25-.02l-.23-.03s-.1,0-.12,0c-.05,0-.07,0-.12-.01-.18-.02-.54-.06-.7-.09l-.58-.08s-.08-.02-.11-.02c-.02,0-.04,0-.06,0-.22-.05-.63-.11-.82-.16l-.14-.03s-.02,0-.02,0l-1.16-.29s-.03-.01-.05-.02l-1.34-.44s-.03-.01-.05-.02l-.28-.11c-.07-.03-.13-.05-.19-.08-.02,0-.03-.01-.05-.02l-.27-.12c-.24-.1-.47-.23-.7-.35-.28-.14-.63-.37-.9-.56l-.47-.37s-.05-.04-.07-.06c-.03-.02-.04-.04-.07-.06-.03-.03-.05-.03-.07-.06l-.48-.52s0-.02-.03-.03c-.1-.12-.21-.25-.29-.38-.02-.03-.03-.05-.05-.08-.1-.14-.22-.33-.31-.49-.03-.06-.06-.11-.1-.17-.06-.12-.12-.23-.17-.35-.15-.3-.26-.63-.37-.95l-.27-.99s0-.03,0-.06c0-.04-.02-.07-.02-.11,0-.05,0-.07-.02-.12l-.04-.23c-.06-.31-.1-.62-.12-.94,0-.04,0-.08,0-.13,0-.03-.01-.07-.02-.12,0-.1,0-.16,0-.26,0-.05,0-.06,0-.12,0-.25-.04-.7,0-.91.02-.13,0-.36.02-.51l.09-1.1s0-.08,0-.12l.07-.59s0-.06.02-.11c0-.04.01-.07.02-.12l.05-.34c0-.05,0-.1.02-.15.02-.05.02-.14.03-.2.04-.19.06-.37.1-.56.02-.11.05-.22.07-.33l.03-.13s0-.02,0-.02l.59-2.32v-.05s.22-.67.22-.67h0s0-.01,0-.02l.02-.07s.01-.03.02-.05c.01-.02.01-.03.02-.05,0-.03,0-.02.01-.05l.36-1.07s0,0,0-.02l.17-.48s.02-.06.03-.1l.25-.68s.01-.03.02-.04c0-.01,0-.03.02-.05,0-.03.03-.06.04-.1l.22-.56c.05-.13.1-.25.15-.38l.12-.28s.02-.06.04-.09l.26-.6c.08-.2.18-.39.26-.59l.08-.18s.03-.06.04-.09c.01-.03.03-.06.04-.09l.13-.27c.07-.17.29-.62.38-.8l1.31-2.57s.01-.03.02-.04c.07-.15.16-.28.23-.43l.05-.09s.03-.05.05-.08l.66-1.18s.01-.02.03-.04l.37-.63c.14-.22.26-.44.4-.66l.2-.33c.04-.06.07-.11.1-.17l.05-.08s.03-.05.05-.07l1.87-2.88,1.74-2.47c.08-.11.15-.2.23-.3l1.25-1.66s.04-.04.06-.07c.02-.02.03-.04.05-.07.08-.1.15-.2.23-.3l1.41-1.77s.08-.1.12-.15l.47-.57s.04-.05.06-.07l.06-.07s.02-.02.03-.03c.01-.01.02-.02.03-.04.03-.03.04-.04.06-.07l.36-.42c.1-.12.21-.24.3-.36,0-.02.01-.02.03-.03.02-.02.02-.02.03-.04.01-.01.02-.02.03-.03l.46-.54s.08-.09.12-.14c.11-.13.23-.25.34-.38l.71-.8s.03-.04.06-.07c.01-.01.02-.02.03-.03l.73-.8s.04-.04.06-.07l.12-.13s.02-.02.03-.03l.74-.79s.04-.04.06-.07l.38-.4s.09-.09.14-.13c.02-.02.04-.04.06-.07.03-.03.03-.04.06-.07l.23-.23c.13-.15.28-.29.42-.43.03-.03.03-.04.06-.07l.86-.86s.08-.09.13-.13l.6-.59s.04-.04.07-.06c.05-.04.08-.09.13-.13.03-.03.04-.03.07-.06.09-.09.2-.2.3-.28l.1-.09s.02-.01.04-.03l.65-.6s.02-.01.04-.03l.38-.34c.09-.09.19-.16.28-.25l.92-.79c.16-.15.34-.28.5-.43.16-.14.34-.28.5-.42l1.46-1.18s.05-.04.08-.06l1.79-1.37s.05-.03.08-.06l1.53-1.11c.05-.04.1-.07.15-.12l1.87-1.28c.21-.14.42-.28.64-.42l.08-.05.72-.47s.05-.03.08-.05c.03-.02.05-.04.08-.05l2.6-1.61c.32-.19.74-.45,1.08-.64.03,0,.05-.03.08-.05l.67-.39s.02-.01.04-.02c.02-.01.03-.02.04-.03.02,0,.03-.01.04-.02.02,0,.03-.02.04-.02l.17-.1c.05-.03.11-.06.16-.09l.21-.12s.03-.01.04-.02c.02-.01.03-.01.04-.02l.13-.07s.03-.01.05-.02l1.32-.73c.38-.19.74-.4,1.12-.59l.13-.07s.02-.02.04-.03c.06-.03.12-.06.18-.09.06-.03.11-.06.17-.09l1.76-.88c.06-.03.11-.06.18-.09.18-.07.52-.26.71-.34l.23-.1s.03-.02.04-.02l1.26-.58c.24-.12.64-.28.9-.41l.97-.42c.63-.27,1.27-.53,1.91-.79l1.15-.44c.12-.05.25-.1.38-.14.25-.09.52-.19.78-.28.13-.04.26-.09.39-.14l.29-.1c.21-.07.48-.18.68-.23.2-.06.55-.2.69-.23l.1-.03c.1-.03.2-.05.29-.1l.47-.14c.22-.06.43-.14.65-.2h.04s.03-.02.05-.03l.3-.08c.07-.02.13-.04.21-.06.14-.04.28-.07.42-.11l.26-.07s.02-.01.05-.02c.07-.02.14-.03.21-.05.03,0,.06-.02.1-.03.07-.01.15-.03.21-.05l.96-.22s.05-.01.05-.01l.38-.08s.08-.01.11-.02l.55-.11s.07-.01.11-.02c.03,0,.07-.01.11-.02l.34-.06s.08-.01.12-.02c.04,0,.07,0,.12-.02.02,0,.03,0,.05,0l1.22-.15c.21,0,.42-.04.62-.05.08,0,.18,0,.26,0,.1,0,.16,0,.26,0,.18,0,.34,0,.51,0"/>
      <path class="cls-2" d="M242.78,85.16c0,2.59-.54,4.87-1.61,6.83-1.08,1.96-2.55,3.6-4.43,4.93-1.88,1.33-4.06,2.34-6.53,3.03-2.48.69-5.12,1.04-7.92,1.04h-30.71v-61.4h34.02c2.21,0,4.21.46,6,1.38,1.79.93,3.31,2.12,4.57,3.59,1.25,1.47,2.22,3.14,2.91,5.01.68,1.88,1.03,3.76,1.03,5.66,0,3-.77,5.81-2.33,8.43-1.55,2.62-3.82,4.57-6.81,5.83,3.64,1.04,6.52,2.9,8.64,5.58,2.12,2.68,3.18,6.04,3.18,10.07M203.93,49.79v15.48h16.47c2.09,0,3.86-.69,5.33-2.08,1.46-1.38,2.19-3.29,2.19-5.7s-.67-4.24-2.02-5.62c-1.34-1.38-3-2.07-4.97-2.07h-17.01ZM230.34,82.91c0-1.09-.19-2.14-.58-3.15-.39-1.01-.91-1.89-1.57-2.64-.66-.75-1.43-1.34-2.33-1.77-.89-.43-1.88-.65-2.95-.65h-18.98v16.17h18.36c1.13,0,2.19-.2,3.18-.6.98-.4,1.84-.97,2.55-1.69.72-.72,1.28-1.57,1.7-2.55.42-.98.63-2.02.63-3.11"/>
      <path class="cls-2" d="M269.46,101.85c-3.76,0-7.17-.62-10.21-1.86-3.04-1.24-5.64-2.92-7.79-5.06-2.15-2.13-3.81-4.61-4.97-7.44-1.17-2.82-1.75-5.79-1.75-8.91s.57-6.27,1.7-9.12c1.13-2.85,2.77-5.36,4.92-7.52,2.15-2.16,4.76-3.88,7.83-5.15,3.08-1.27,6.52-1.9,10.34-1.9s7.24.63,10.25,1.9c3.01,1.27,5.58,2.97,7.7,5.1,2.12,2.14,3.73,4.62,4.83,7.44,1.1,2.83,1.66,5.77,1.66,8.82,0,.75-.02,1.47-.05,2.16-.03.69-.1,1.27-.22,1.73h-36.26c.18,1.79.63,3.38,1.35,4.76.71,1.39,1.64,2.57,2.77,3.55,1.13.98,2.42,1.73,3.85,2.25,1.43.52,2.92.78,4.47.78,2.39,0,4.64-.56,6.76-1.69,2.12-1.12,3.56-2.6,4.34-4.45l10.3,2.77c-1.73,3.46-4.49,6.3-8.28,8.51-3.79,2.22-8.31,3.33-13.56,3.33M281.64,74.52c-.3-3.4-1.6-6.12-3.89-8.17-2.3-2.05-5.09-3.07-8.37-3.07-1.61,0-3.12.27-4.52.82-1.4.55-2.64,1.31-3.72,2.29-1.07.98-1.95,2.16-2.64,3.55-.69,1.38-1.09,2.91-1.21,4.58h24.35Z"/>
      <path class="cls-2" d="M316.11,101.25c-3.1,0-5.95-.6-8.55-1.82-2.6-1.21-4.82-2.87-6.67-4.97-1.85-2.1-3.28-4.54-4.29-7.31-1.02-2.77-1.52-5.71-1.52-8.82,0-3.29.54-6.34,1.61-9.17,1.08-2.82,2.57-5.3,4.48-7.44,1.91-2.13,4.2-3.8,6.85-5.02,2.65-1.21,5.6-1.81,8.82-1.81,3.7,0,6.92.79,9.67,2.38,2.75,1.59,4.98,3.71,6.72,6.36v-7.95h10.47v43.15c0,3.34-.64,6.34-1.93,9-1.29,2.65-3.09,4.9-5.41,6.74-2.33,1.84-5.07,3.26-8.24,4.24-3.17.98-6.63,1.47-10.38,1.47-5.2,0-9.54-.82-13.03-2.46-3.49-1.64-6.49-3.96-9-6.96l6.53-6.14c1.79,2.13,4.04,3.81,6.76,5.02,2.72,1.21,5.63,1.82,8.73,1.82,1.85,0,3.62-.25,5.32-.73,1.7-.49,3.19-1.26,4.48-2.29,1.28-1.04,2.3-2.37,3.04-3.98.75-1.61,1.12-3.52,1.12-5.71v-5.71c-1.55,2.59-3.73,4.6-6.53,6.01-2.8,1.41-5.82,2.12-9.04,2.12M320.22,91.99c1.31,0,2.56-.2,3.76-.6,1.19-.4,2.28-.95,3.27-1.64.98-.69,1.86-1.5,2.64-2.42.77-.92,1.37-1.9,1.79-2.94v-10.81c-1.07-2.65-2.75-4.78-5.01-6.4-2.27-1.61-4.66-2.42-7.16-2.42-1.85,0-3.54.39-5.06,1.17-1.52.78-2.82,1.82-3.9,3.11-1.07,1.3-1.89,2.78-2.46,4.45-.56,1.67-.85,3.4-.85,5.19s.33,3.57.98,5.19c.66,1.62,1.57,3.03,2.73,4.24,1.16,1.21,2.54,2.16,4.12,2.86,1.58.69,3.29,1.04,5.15,1.04"/>
      <path class="cls-2" d="M350.84,37.86h12v11.5h-12v-11.5ZM350.84,55.67h12v45.31h-12v-45.31Z"/>
      <path class="cls-2" d="M413.51,100.99h-12v-25.42c0-3.63-.66-6.28-1.97-7.95-1.31-1.67-3.13-2.51-5.46-2.51-1.19,0-2.42.23-3.67.69-1.26.46-2.43,1.11-3.54,1.95-1.1.83-2.1,1.83-3,2.98-.9,1.15-1.55,2.42-1.97,3.81v26.46h-12v-45.31h10.83v8.39c1.73-2.88,4.24-5.13,7.52-6.74s6.98-2.42,11.1-2.42c2.92,0,5.31.52,7.16,1.55,1.85,1.04,3.28,2.39,4.3,4.07,1.02,1.67,1.72,3.58,2.11,5.71.39,2.13.58,4.29.58,6.48v28.28Z"/>
      <path class="cls-2" d="M438.76,101.85c-1.91,0-3.89-.15-5.95-.43-2.06-.29-4.07-.69-6.04-1.21-1.97-.52-3.85-1.15-5.64-1.9s-3.37-1.59-4.74-2.51l4.84-7.87c5.97,3.75,11.73,5.62,17.28,5.62,2.51,0,4.48-.44,5.91-1.3,1.43-.87,2.15-2.1,2.15-3.72s-.85-2.81-2.55-3.59c-1.7-.78-4.55-1.63-8.55-2.55-3.05-.69-5.64-1.41-7.79-2.16-2.15-.75-3.88-1.61-5.19-2.59-1.31-.98-2.27-2.1-2.87-3.37-.6-1.27-.89-2.77-.89-4.5,0-2.3.48-4.38,1.43-6.23.95-1.84,2.28-3.42,3.99-4.71,1.7-1.3,3.7-2.29,6-2.98,2.3-.69,4.79-1.04,7.48-1.04,3.34,0,6.67.51,9.98,1.51,3.32,1.01,6.4,2.38,9.27,4.11l-4.92,7.18c-2.63-1.61-5.11-2.78-7.44-3.5-2.33-.72-4.65-1.08-6.98-1.08-2.15,0-3.95.4-5.42,1.21-1.46.81-2.19,2.1-2.19,3.89,0,1.56.7,2.68,2.11,3.37,1.4.69,3.89,1.47,7.47,2.34,3.34.81,6.19,1.61,8.55,2.42,2.36.81,4.29,1.73,5.82,2.77,1.52,1.04,2.63,2.23,3.31,3.59.68,1.35,1.03,2.98,1.03,4.88,0,2.19-.47,4.18-1.39,5.97-.93,1.79-2.22,3.3-3.9,4.54-1.67,1.24-3.71,2.19-6.13,2.85-2.42.66-5.09.99-8.02.99"/>
      <path class="cls-2" d="M480.66,101.85c-1.91,0-3.89-.15-5.95-.43-2.06-.29-4.07-.69-6.04-1.21-1.97-.52-3.85-1.15-5.64-1.9s-3.37-1.59-4.74-2.51l4.84-7.87c5.97,3.75,11.73,5.62,17.28,5.62,2.51,0,4.48-.44,5.91-1.3,1.43-.87,2.15-2.1,2.15-3.72s-.85-2.81-2.55-3.59c-1.7-.78-4.55-1.63-8.55-2.55-3.05-.69-5.64-1.41-7.79-2.16-2.15-.75-3.88-1.61-5.19-2.59-1.31-.98-2.27-2.1-2.87-3.37-.6-1.27-.89-2.77-.89-4.5,0-2.3.48-4.38,1.43-6.23.95-1.84,2.28-3.42,3.99-4.71,1.7-1.3,3.7-2.29,6-2.98,2.3-.69,4.79-1.04,7.48-1.04,3.34,0,6.67.51,9.98,1.51,3.32,1.01,6.4,2.38,9.27,4.11l-4.92,7.18c-2.63-1.61-5.11-2.78-7.44-3.5-2.33-.72-4.65-1.08-6.98-1.08-2.15,0-3.95.4-5.42,1.21-1.46.81-2.19,2.1-2.19,3.89,0,1.56.7,2.68,2.11,3.37,1.4.69,3.89,1.47,7.47,2.34,3.34.81,6.19,1.61,8.55,2.42,2.36.81,4.29,1.73,5.82,2.77,1.52,1.04,2.63,2.23,3.31,3.59.68,1.35,1.03,2.98,1.03,4.88,0,2.19-.47,4.18-1.39,5.97-.93,1.79-2.22,3.3-3.9,4.54-1.67,1.24-3.71,2.19-6.13,2.85-2.42.66-5.09.99-8.02.99"/>
    </g>
  </g>
</svg>